<svg xmlns="http://www.w3.org/2000/svg" viewBox="0 0 41 41"><defs><style>.a{fill:#0e76bc;}.b{fill:#fff;}</style></defs><g transform="translate(-1260 -12)"><circle class="a" cx="20.5" cy="20.5" r="20.5" transform="translate(1260 12)"/><g transform="translate(1182 -10.885)"><g transform="translate(87.918 30)"><path class="b" d="M54.162,54.274a.622.622,0,0,1-1.245,0,9.336,9.336,0,0,0-18.672,0,.622.622,0,1,1-1.245,0,10.581,10.581,0,0,1,21.162,0ZM43.581,42.448a6.224,6.224,0,1,1,6.224-6.224A6.224,6.224,0,0,1,43.581,42.448Zm0-1.245A4.979,4.979,0,1,0,38.6,36.224,4.979,4.979,0,0,0,43.581,41.2Z" transform="translate(-33 -30)"/></g></g></g></svg>