<svg xmlns="http://www.w3.org/2000/svg" viewBox="0 0 30.286 32.11"><defs><style>.a{fill:#0067b8;}</style></defs><g transform="translate(942.1 -955.2)"><g transform="translate(-942.1 955.2)"><path class="a" d="M-905.768,983.666a7.983,7.983,0,0,0-7.966-7.966,7.983,7.983,0,0,0-7.966,7.966,7.024,7.024,0,0,0,.246,1.9,7.439,7.439,0,0,0,1.123,2.527c.105.211.246.421.386.667.175.281.316.562.491.807a5.355,5.355,0,0,1,1.123,3.193v3.3a1.663,1.663,0,0,0,1.4,1.649c.351,1.79,1.4,2.913,3.193,2.913a3.123,3.123,0,0,0,3.194-2.913,1.69,1.69,0,0,0,1.4-1.649v-3.3a5.275,5.275,0,0,1,1.123-3.193c.141-.246.316-.526.491-.807.14-.246.281-.456.386-.667a7.441,7.441,0,0,0,1.123-2.527A7.029,7.029,0,0,0-905.768,983.666Zm-4.738,9.931h-6.387v-.807a1.851,1.851,0,0,0-.035-.456h6.422c0,.14-.035.281-.035.456v.807Zm-.316,2.772h-5.826a.277.277,0,0,1-.281-.281V995h6.387v1.088C-910.505,996.23-910.646,996.37-910.821,996.37Zm-2.913,2.878c-.386,0-1.369,0-1.755-1.474h3.544A1.681,1.681,0,0,1-913.734,999.248Zm6.352-13.967a6.529,6.529,0,0,1-.948,2.106c-.141.21-.246.421-.386.667-.175.281-.316.561-.456.772a10.462,10.462,0,0,0-1.053,2.071h-6.948a8.876,8.876,0,0,0-1.053-2.071c-.14-.246-.316-.491-.456-.772-.14-.246-.281-.491-.386-.667a6.688,6.688,0,0,1-.948-2.141,6.1,6.1,0,0,1-.211-1.579,6.575,6.575,0,0,1,6.563-6.562,6.575,6.575,0,0,1,6.562,6.563A14.181,14.181,0,0,1-907.382,985.281Z" transform="translate(928.859 -968.506)"/><path class="a" d="M-864.485,996.4H-867.4a.7.7,0,0,0-.7.7.7.7,0,0,0,.7.7h2.913a.7.7,0,0,0,.7-.7A.7.7,0,0,0-864.485,996.4Z" transform="translate(894.069 -981.942)"/><path class="a" d="M-877.1,970.774a.693.693,0,0,0,.491-.211l2.071-2.07a.679.679,0,0,0,0-.983.679.679,0,0,0-.983,0l-2.07,2.071a.678.678,0,0,0,0,.982A.693.693,0,0,0-877.1,970.774Z" transform="translate(900.365 -963.054)"/><path class="a" d="M-900.3,959.517a.7.7,0,0,0,.7-.7V955.9a.7.7,0,0,0-.7-.7.7.7,0,0,0-.7.7v2.913A.7.7,0,0,0-900.3,959.517Z" transform="translate(915.423 -955.2)"/><path class="a" d="M-927.819,970.564a.693.693,0,0,0,.491.211.693.693,0,0,0,.491-.211.679.679,0,0,0,0-.983l-2.07-2.07a.679.679,0,0,0-.983,0,.678.678,0,0,0,0,.983Z" transform="translate(934.311 -963.054)"/><path class="a" d="M-938.485,996.4H-941.4a.7.7,0,0,0-.7.7.7.7,0,0,0,.7.7h2.913a.7.7,0,0,0,.7-.7A.7.7,0,0,0-938.485,996.4Z" transform="translate(942.1 -981.942)"/><path class="a" d="M-927.819,1019.811l-2.071,2.071a.678.678,0,0,0,0,.983.693.693,0,0,0,.491.211.693.693,0,0,0,.491-.211l2.07-2.071a.678.678,0,0,0,0-.983A.678.678,0,0,0-927.819,1019.811Z" transform="translate(934.311 -997)"/><path class="a" d="M-876.607,1019.811a.679.679,0,0,0-.983,0,.679.679,0,0,0,0,.983l2.071,2.071a.693.693,0,0,0,.491.211.693.693,0,0,0,.491-.211.678.678,0,0,0,0-.983Z" transform="translate(900.365 -997)"/></g></g></svg>