<svg xmlns="http://www.w3.org/2000/svg" viewBox="0 0 18 22.579"><defs><style>.a{fill:#0067b8;}</style></defs><g transform="translate(-157.7 -52.83)"><g transform="translate(157.7 52.83)"><g transform="translate(0 0)"><path class="a" d="M30.549,10.43l-.005-.009a.5.5,0,0,0-.1-.129L25.3,5.147c-.006-.006-.014-.009-.02-.015a.5.5,0,0,0-.081-.06l-.038-.021a.5.5,0,0,0-.114-.041l-.012,0A.533.533,0,0,0,24.943,5h-9.1a1.717,1.717,0,0,0-1.715,1.715V24.239a1.717,1.717,0,0,0,1.715,1.715h8.184a4.595,4.595,0,1,0,6.583-6.381V10.659A.5.5,0,0,0,30.549,10.43Zm-5.1-3.717,3.446,3.446H26.158a.712.712,0,0,1-.711-.711ZM15.84,24.951a.712.712,0,0,1-.711-.711V6.715A.712.712,0,0,1,15.84,6h8.6V9.448a1.716,1.716,0,0,0,1.714,1.714H29.6V18.88a4.59,4.59,0,0,0-6.228,6.071H15.84Zm15.282-1.973a3.6,3.6,0,1,1-3.6-3.6A3.6,3.6,0,0,1,31.122,22.978Z" transform="translate(-14.125 -5)"/><path class="a" d="M32.2,66.412H27.9a.5.5,0,1,0,0,1h4.3a.5.5,0,1,0,0-1Z" transform="translate(-24.066 -51.005)"/><path class="a" d="M27.893,52.825h8.822a.5.5,0,1,0,0-1H27.893a.5.5,0,1,0,0,1Z" transform="translate(-24.063 -40.075)"/><path class="a" d="M27.893,38.108h8.822a.5.5,0,1,0,0-1H27.893a.5.5,0,0,0,0,1Z" transform="translate(-24.063 -29.051)"/><path class="a" d="M27.893,24.125H32.3a.5.5,0,1,0,0-1H27.893a.5.5,0,0,0,0,1Z" transform="translate(-24.063 -18.576)"/><path class="a" d="M62.084,68.569a.5.5,0,0,0-.7.117l-1.873,2.622-1.2-1.2a.5.5,0,0,0-.709.709l1.623,1.623a.5.5,0,0,0,.355.147l.041,0a.5.5,0,0,0,.367-.208l2.217-3.1A.5.5,0,0,0,62.084,68.569Z" transform="translate(-46.581 -52.551)"/></g></g></g></svg>