<svg xmlns="http://www.w3.org/2000/svg" viewBox="0 0 22 22.001"><defs><style>.a{fill:#fff;}</style></defs><g transform="translate(-25.512 -25.512)"><path class="a" d="M46.838,44.037H44.71a.674.674,0,0,0-.674.674v2.128a.674.674,0,0,0,.674.674h2.128a.674.674,0,0,0,.674-.674V44.711A.674.674,0,0,0,46.838,44.037Zm-9.262,0H35.448a.674.674,0,0,0-.674.674v2.128a.674.674,0,0,0,.674.674h2.128a.674.674,0,0,0,.674-.674V44.711A.674.674,0,0,0,37.576,44.037Zm-9.262,0H26.186a.674.674,0,0,0-.674.674v2.128a.674.674,0,0,0,.674.674h2.128a.674.674,0,0,0,.674-.674V44.711A.674.674,0,0,0,28.314,44.037ZM46.838,25.512H44.71a.674.674,0,0,0-.674.674v2.128a.674.674,0,0,0,.674.674h2.128a.674.674,0,0,0,.674-.674V26.186A.674.674,0,0,0,46.838,25.512Zm-18.524,0H26.186a.673.673,0,0,0-.674.674v2.128a.673.673,0,0,0,.674.674h2.128a.674.674,0,0,0,.674-.674V26.186A.674.674,0,0,0,28.314,25.512Zm9.262,0H35.448a.674.674,0,0,0-.674.674v2.128a.674.674,0,0,0,.674.674h2.128a.674.674,0,0,0,.674-.674V26.186A.674.674,0,0,0,37.576,25.512Zm-9.262,9.262H26.186a.673.673,0,0,0-.674.674v2.129a.674.674,0,0,0,.674.674h2.128a.674.674,0,0,0,.674-.674V35.448A.674.674,0,0,0,28.314,34.774Zm9.262,0H35.448a.674.674,0,0,0-.674.674v2.129a.674.674,0,0,0,.674.674h2.128a.674.674,0,0,0,.674-.674V35.448A.674.674,0,0,0,37.576,34.774Zm9.262,0H44.71a.674.674,0,0,0-.674.674v2.129a.674.674,0,0,0,.674.674h2.128a.674.674,0,0,0,.674-.674V35.448A.674.674,0,0,0,46.838,34.774Z" transform="translate(0 0)"/></g></svg>