<svg xmlns="http://www.w3.org/2000/svg" viewBox="0 0 27.755 25.078"><defs><style>.a{fill:#0067b8;}</style></defs><g transform="translate(-57.871 -166.422)"><g transform="translate(38.552 146.922)"><path class="a" d="M40.178,43.786H38.9V30.851a.454.454,0,0,0-.264-.377l-1.848-.528V23.874a.356.356,0,0,0-.377-.377H33.239V20.9a.377.377,0,1,0-.754,0v2.6H29.619v-3.62a.356.356,0,0,0-.377-.377H21.511a.356.356,0,0,0-.377.377v6.071H17.212a.356.356,0,0,0-.377.377v6.222l-1.735.566a.375.375,0,0,0-.264.377V43.823H13.177a.377.377,0,1,0,0,.754h27a.356.356,0,0,0,.377-.377A.413.413,0,0,0,40.178,43.786Zm-2.036,0H31.354V30.512a.356.356,0,0,0-.377-.377h-1.4v-1.4l8.56,2.376ZM30.6,30.889v12.9h-6.26v-12.9Zm5.393-6.637V29.72l-6.411-1.81V24.252Zm-7.165-4v9.88H23.962a.356.356,0,0,0-.377.377V43.786H22.68V31.19a.466.466,0,0,0-.151-.3.367.367,0,0,0-.339-.038l-.3.113V20.254ZM17.589,26.7h3.545V31.19l-3.545,1.131V26.7Zm-2.036,7.014,6.373-2V43.786H15.553Z" transform="translate(6.519 0)"/><path class="a" d="M23.877,60.5a.356.356,0,0,0-.377.377v1.7a.377.377,0,0,0,.754,0v-1.7A.378.378,0,0,0,23.877,60.5Z" transform="translate(-0.146 -25.539)"/><path class="a" d="M27.877,60.5a.356.356,0,0,0-.377.377v1.7a.377.377,0,0,0,.754,0v-1.7A.356.356,0,0,0,27.877,60.5Z" transform="translate(-2.638 -25.539)"/><path class="a" d="M31.977,60.5a.356.356,0,0,0-.377.377v1.7a.377.377,0,0,0,.754,0v-1.7A.356.356,0,0,0,31.977,60.5Z" transform="translate(-5.192 -25.539)"/><path class="a" d="M46.977,59.984a.356.356,0,0,0,.377-.377v-.83a.377.377,0,1,0-.754,0v.83A.356.356,0,0,0,46.977,59.984Z" transform="translate(-14.535 -24.231)"/><path class="a" d="M51.077,59.984a.356.356,0,0,0,.377-.377v-.83a.377.377,0,0,0-.754,0v.83A.356.356,0,0,0,51.077,59.984Z" transform="translate(-17.089 -24.231)"/><path class="a" d="M55.177,59.984a.356.356,0,0,0,.377-.377v-.83a.377.377,0,0,0-.754,0v.83A.356.356,0,0,0,55.177,59.984Z" transform="translate(-19.643 -24.231)"/><path class="a" d="M46.977,66.184a.356.356,0,0,0,.377-.377v-.83a.377.377,0,1,0-.754,0v.83A.378.378,0,0,0,46.977,66.184Z" transform="translate(-14.535 -28.092)"/><path class="a" d="M51.077,66.184a.356.356,0,0,0,.377-.377v-.83a.377.377,0,1,0-.754,0v.83A.378.378,0,0,0,51.077,66.184Z" transform="translate(-17.089 -28.092)"/><path class="a" d="M55.177,66.184a.356.356,0,0,0,.377-.377v-.83a.377.377,0,1,0-.754,0v.83A.378.378,0,0,0,55.177,66.184Z" transform="translate(-19.643 -28.092)"/><path class="a" d="M27.877,42a.356.356,0,0,0-.377.377v1.4a.377.377,0,0,0,.754,0v-1.4A.356.356,0,0,0,27.877,42Z" transform="translate(-2.638 -14.015)"/><path class="a" d="M31.477,42a.356.356,0,0,0-.377.377v1.4a.377.377,0,0,0,.754,0v-1.4A.356.356,0,0,0,31.477,42Z" transform="translate(-4.88 -14.015)"/><path class="a" d="M46.977,53.884a.356.356,0,0,0,.377-.377v-.83a.377.377,0,1,0-.754,0v.83A.356.356,0,0,0,46.977,53.884Z" transform="translate(-14.535 -20.431)"/><path class="a" d="M51.077,53.884a.356.356,0,0,0,.377-.377v-.83a.377.377,0,0,0-.754,0v.83A.356.356,0,0,0,51.077,53.884Z" transform="translate(-17.089 -20.431)"/><path class="a" d="M55.177,53.884a.356.356,0,0,0,.377-.377v-.83a.377.377,0,0,0-.754,0v.83A.356.356,0,0,0,55.177,53.884Z" transform="translate(-19.643 -20.431)"/><path class="a" d="M41.277,36.084a.356.356,0,0,0,.377-.377v-.83a.377.377,0,1,0-.754,0v.83A.378.378,0,0,0,41.277,36.084Z" transform="translate(-10.985 -9.343)"/><path class="a" d="M45.377,36.084a.356.356,0,0,0,.377-.377v-.83a.377.377,0,1,0-.754,0v.83A.378.378,0,0,0,45.377,36.084Z" transform="translate(-13.539 -9.343)"/><path class="a" d="M49.477,36.084a.356.356,0,0,0,.377-.377v-.83a.377.377,0,1,0-.754,0v.83A.378.378,0,0,0,49.477,36.084Z" transform="translate(-16.092 -9.343)"/><path class="a" d="M61.177,36.084a.356.356,0,0,0,.377-.377v-.83a.377.377,0,1,0-.754,0v.83A.378.378,0,0,0,61.177,36.084Z" transform="translate(-23.38 -9.343)"/><path class="a" d="M65.277,36.084a.356.356,0,0,0,.377-.377v-.83a.377.377,0,1,0-.754,0v.83A.378.378,0,0,0,65.277,36.084Z" transform="translate(-25.934 -9.343)"/><path class="a" d="M69.377,36.084a.356.356,0,0,0,.377-.377v-.83a.377.377,0,1,0-.754,0v.83A.378.378,0,0,0,69.377,36.084Z" transform="translate(-28.488 -9.343)"/><path class="a" d="M41.277,42.284a.356.356,0,0,0,.377-.377v-.83a.377.377,0,0,0-.754,0v.83A.406.406,0,0,0,41.277,42.284Z" transform="translate(-10.985 -13.205)"/><path class="a" d="M45.377,42.284a.356.356,0,0,0,.377-.377v-.83a.377.377,0,0,0-.754,0v.83A.406.406,0,0,0,45.377,42.284Z" transform="translate(-13.539 -13.205)"/><path class="a" d="M49.477,42.284a.356.356,0,0,0,.377-.377v-.83a.377.377,0,1,0-.754,0v.83A.406.406,0,0,0,49.477,42.284Z" transform="translate(-16.092 -13.205)"/><path class="a" d="M41.277,29.984a.356.356,0,0,0,.377-.377v-.83a.377.377,0,0,0-.754,0v.83A.378.378,0,0,0,41.277,29.984Z" transform="translate(-10.985 -5.544)"/><path class="a" d="M45.377,29.984a.356.356,0,0,0,.377-.377v-.83a.377.377,0,0,0-.754,0v.83A.378.378,0,0,0,45.377,29.984Z" transform="translate(-13.539 -5.544)"/><path class="a" d="M49.477,29.984a.356.356,0,0,0,.377-.377v-.83a.377.377,0,1,0-.754,0v.83A.378.378,0,0,0,49.477,29.984Z" transform="translate(-16.092 -5.544)"/><path class="a" d="M46.977,72.284a.356.356,0,0,0,.377-.377v-.83a.377.377,0,1,0-.754,0v.83A.378.378,0,0,0,46.977,72.284Z" transform="translate(-14.535 -31.892)"/><path class="a" d="M51.077,72.284a.356.356,0,0,0,.377-.377v-.83a.377.377,0,0,0-.754,0v.83A.378.378,0,0,0,51.077,72.284Z" transform="translate(-17.089 -31.892)"/><path class="a" d="M55.177,72.284a.356.356,0,0,0,.377-.377v-.83a.377.377,0,0,0-.754,0v.83A.378.378,0,0,0,55.177,72.284Z" transform="translate(-19.643 -31.892)"/><path class="a" d="M46.977,78.384a.356.356,0,0,0,.377-.377v-.83a.377.377,0,1,0-.754,0v.83A.378.378,0,0,0,46.977,78.384Z" transform="translate(-14.535 -35.692)"/><path class="a" d="M51.077,78.384a.356.356,0,0,0,.377-.377v-.83a.377.377,0,1,0-.754,0v.83A.378.378,0,0,0,51.077,78.384Z" transform="translate(-17.089 -35.692)"/><path class="a" d="M55.177,78.384a.356.356,0,0,0,.377-.377v-.83a.377.377,0,1,0-.754,0v.83A.378.378,0,0,0,55.177,78.384Z" transform="translate(-19.643 -35.692)"/><path class="a" d="M23.877,76.8a.356.356,0,0,0-.377.377v.83a.377.377,0,1,0,.754,0v-.83A.406.406,0,0,0,23.877,76.8Z" transform="translate(-0.146 -35.692)"/><path class="a" d="M27.877,76.8a.356.356,0,0,0-.377.377v.83a.377.377,0,1,0,.754,0v-.83A.378.378,0,0,0,27.877,76.8Z" transform="translate(-2.638 -35.692)"/><path class="a" d="M31.977,76.8a.356.356,0,0,0-.377.377v.83a.377.377,0,1,0,.754,0v-.83A.378.378,0,0,0,31.977,76.8Z" transform="translate(-5.192 -35.692)"/><path class="a" d="M66.477,78.384a.356.356,0,0,0,.377-.377v-.83a.377.377,0,1,0-.754,0v.83A.406.406,0,0,0,66.477,78.384Z" transform="translate(-26.682 -35.692)"/><path class="a" d="M70.577,78.384a.356.356,0,0,0,.377-.377v-.83a.377.377,0,1,0-.754,0v.83A.406.406,0,0,0,70.577,78.384Z" transform="translate(-29.236 -35.692)"/><path class="a" d="M74.677,78.384a.356.356,0,0,0,.377-.377v-.83a.377.377,0,1,0-.754,0v.83A.406.406,0,0,0,74.677,78.384Z" transform="translate(-31.789 -35.692)"/><path class="a" d="M66.477,62.951a.356.356,0,0,0,.377-.377v-1.7a.377.377,0,1,0-.754,0v1.7A.378.378,0,0,0,66.477,62.951Z" transform="translate(-26.682 -25.539)"/><path class="a" d="M70.577,62.951a.356.356,0,0,0,.377-.377v-1.7a.377.377,0,0,0-.754,0v1.7A.378.378,0,0,0,70.577,62.951Z" transform="translate(-29.236 -25.539)"/><path class="a" d="M74.677,62.951a.356.356,0,0,0,.377-.377v-1.7a.377.377,0,0,0-.754,0v1.7A.378.378,0,0,0,74.677,62.951Z" transform="translate(-31.789 -25.539)"/><path class="a" d="M66.477,54.751a.356.356,0,0,0,.377-.377v-1.7a.377.377,0,0,0-.754,0v1.7A.406.406,0,0,0,66.477,54.751Z" transform="translate(-26.682 -20.431)"/><path class="a" d="M70.577,54.751a.356.356,0,0,0,.377-.377v-1.7a.377.377,0,0,0-.754,0v1.7A.406.406,0,0,0,70.577,54.751Z" transform="translate(-29.236 -20.431)"/><path class="a" d="M74.677,54.751a.356.356,0,0,0,.377-.377v-1.7a.377.377,0,0,0-.754,0v1.7A.406.406,0,0,0,74.677,54.751Z" transform="translate(-31.789 -20.431)"/><path class="a" d="M23.877,68.6a.356.356,0,0,0-.377.377v1.584a.377.377,0,0,0,.754,0V68.977A.406.406,0,0,0,23.877,68.6Z" transform="translate(-0.146 -30.584)"/><path class="a" d="M27.877,68.6a.356.356,0,0,0-.377.377v1.584a.377.377,0,0,0,.754,0V68.977A.378.378,0,0,0,27.877,68.6Z" transform="translate(-2.638 -30.584)"/><path class="a" d="M31.977,68.6a.356.356,0,0,0-.377.377v1.584a.377.377,0,0,0,.754,0V68.977A.378.378,0,0,0,31.977,68.6Z" transform="translate(-5.192 -30.584)"/><path class="a" d="M66.477,71.038a.356.356,0,0,0,.377-.377V69.077a.377.377,0,0,0-.754,0v1.584A.406.406,0,0,0,66.477,71.038Z" transform="translate(-26.682 -30.646)"/><path class="a" d="M70.577,71.038a.356.356,0,0,0,.377-.377V69.077a.377.377,0,0,0-.754,0v1.584A.406.406,0,0,0,70.577,71.038Z" transform="translate(-29.236 -30.646)"/><path class="a" d="M74.677,71.038a.356.356,0,0,0,.377-.377V69.077a.377.377,0,0,0-.754,0v1.584A.406.406,0,0,0,74.677,71.038Z" transform="translate(-31.789 -30.646)"/></g></g></svg>