<svg xmlns="http://www.w3.org/2000/svg" viewBox="0 0 24.5 24.498"><defs><style>.a{fill:#0067b8;}</style></defs><g transform="translate(31.001 8.597)"><g transform="translate(-31.001 -8.597)"><g transform="translate(5.105)"><path class="a" d="M12.145,17.353c-2.514,0-4.747-2.031-5.674-5.1C5.628,12.2,5,11.119,5,9.7a4.265,4.265,0,0,1,.155-1.155A6.87,6.87,0,0,1,5,7.145a7.145,7.145,0,0,1,14.291,0,6.87,6.87,0,0,1-.155,1.4A4.265,4.265,0,0,1,19.291,9.7c0,1.422-.628,2.5-1.471,2.551C16.892,15.322,14.659,17.353,12.145,17.353ZM6.83,11.144a.478.478,0,0,1,.179.033.516.516,0,0,1,.319.339c.714,2.882,2.65,4.817,4.817,4.817s4.1-1.935,4.817-4.817a.51.51,0,0,1,.766-.309c.17.035.542-.518.542-1.509a3.1,3.1,0,0,0-.146-.971.518.518,0,0,1-.014-.271,6.03,6.03,0,0,0,.16-1.311,6.125,6.125,0,1,0-12.249,0A6.087,6.087,0,0,0,6.18,8.456a.5.5,0,0,1-.014.271,3.126,3.126,0,0,0-.145.971c0,.988.384,1.531.51,1.531A.568.568,0,0,1,6.83,11.144Z" transform="translate(-5 0)"/></g><g transform="translate(5.276 3.062)"><path class="a" d="M17.246,9.125a.511.511,0,0,1-.466-.3,7.526,7.526,0,0,1-.517-1.754,9.315,9.315,0,0,1-5.455-2.274,2.079,2.079,0,0,1-.342.444,3.915,3.915,0,0,1-2.784.825,7.685,7.685,0,0,0-.135,2.515.51.51,0,0,1-.586.541,10.318,10.318,0,0,0-1.283-.105.51.51,0,1,1,0-1.021c.277,0,.571.02.819.043A4.7,4.7,0,0,1,6.972,5.3a.913.913,0,0,1,.718-.26,3.044,3.044,0,0,0,2.057-.528,1.339,1.339,0,0,0,.354-1,.51.51,0,1,1,1.021,0c.059.512,2.618,2.552,5.614,2.552a.511.511,0,0,1,.51.51,4.853,4.853,0,0,0,.335,1.5l.983-.081a.511.511,0,0,1,.084,1.018l-1.36.111Z" transform="translate(-5.168 -3)"/></g><g transform="translate(9.188 9.187)"><path class="a" d="M10.531,10.021H9.51A.51.51,0,0,1,9.51,9h1.021a.51.51,0,0,1,0,1.021Z" transform="translate(-9 -9)"/></g><g transform="translate(13.271 9.187)"><path class="a" d="M14.531,10.021H13.51A.51.51,0,0,1,13.51,9h1.021a.51.51,0,0,1,0,1.021Z" transform="translate(-13 -9)"/></g><g transform="translate(0 16.332)"><path class="a" d="M23.988,24.166H.51a.51.51,0,0,1-.5-.634l.793-3.171A2.552,2.552,0,0,1,2.143,18.7l5.284-2.642a.515.515,0,0,1,.4-.022.51.51,0,0,1,.294.279l2.628,6.134.387-.773a4.364,4.364,0,0,1-.933-2.1c0-.944.783-1.531,2.042-1.531s2.042.587,2.042,1.531a4.348,4.348,0,0,1-.933,2.1l.387.773,2.628-6.134a.51.51,0,0,1,.294-.279.52.52,0,0,1,.4.022l5.284,2.642a2.555,2.555,0,0,1,1.335,1.664l.793,3.171a.513.513,0,0,1-.5.636Zm-9.434-1.021h8.781L22.7,20.608a1.529,1.529,0,0,0-.8-1l-4.8-2.4Zm-3.01,0h1.412l-.652-1.3a.513.513,0,0,1,.058-.547,4.227,4.227,0,0,0,.908-1.723c0-.46-.714-.51-1.021-.51s-1.021.05-1.021.51a4.274,4.274,0,0,0,.909,1.723.511.511,0,0,1,.058.547Zm-10.379,0H9.945L7.4,17.21l-4.8,2.4a1.526,1.526,0,0,0-.8,1Z" transform="translate(0.001 -16)"/></g></g></g></svg>