<svg xmlns="http://www.w3.org/2000/svg" viewBox="0 0 23.211 23.212"><defs><style>.a{fill:#0067b8;}</style></defs><g transform="translate(-10.98 -11.979)"><g transform="translate(10.98 11.979)"><path class="a" d="M25.485,40.9l-.276-.007a6.437,6.437,0,0,0-1.688-3.249,6.056,6.056,0,0,0-8.762,0,6.435,6.435,0,0,0-1.678,3.2l-.385-.007A1.681,1.681,0,0,0,10.98,42.47V45.2A1.681,1.681,0,0,0,12.7,46.835H13.81a9.552,9.552,0,0,0,.946,1.882,6.282,6.282,0,0,0,1.508,1.616,1.3,1.3,0,0,0,1.3,1.272h1.363a1.3,1.3,0,1,0,0-2.6H17.559a1.291,1.291,0,0,0-.971.446,5.525,5.525,0,0,1-1.089-1.23,11.292,11.292,0,0,1-1.608-5.087,3.446,3.446,0,0,1,2.195-1.777,5.622,5.622,0,0,1,2.2-.228.605.605,0,0,0-.094.533c.122.426.644.625,1.552.592a5.545,5.545,0,0,0,4.321-2.122,5.652,5.652,0,0,1,.371,2.012,12.684,12.684,0,0,1-.951,4.751h2A1.681,1.681,0,0,0,27.2,45.261V42.535A1.681,1.681,0,0,0,25.485,40.9Zm-7.926,9h1.363a.406.406,0,1,1,0,.811H17.56a.406.406,0,0,1,0-.811Zm-4.494-5.759.341,1.8H12.7a.789.789,0,0,1-.824-.747V42.47a.789.789,0,0,1,.824-.747h.274c-.009.141-.021.282-.021.425,0,.032,0,.067,0,.1s0,.09,0,.135l.018.669h.018c0,.01,0,.021,0,.031l-.019,0ZM21.757,40.9a5.739,5.739,0,0,1-2.366.47,3.278,3.278,0,0,0,2.329-3.08l-.892-.017a2.395,2.395,0,0,1-1.589,2.213,2.171,2.171,0,0,0-.885-.241,5.887,5.887,0,0,0-4.487,1.394A5.551,5.551,0,0,1,15.4,38.261a5.173,5.173,0,0,1,7.487,0,5.473,5.473,0,0,1,.67.85A2.989,2.989,0,0,1,21.757,40.9Zm4.553,4.363a.789.789,0,0,1-.824.747h-.614a14.8,14.8,0,0,0,.456-3.56c0-.017,0-.034,0-.051,0-.083.006-.168.006-.249,0-.122-.011-.24-.018-.36h.172a.789.789,0,0,1,.824.747Z" transform="translate(-10.98 -28.394)"/><path class="a" d="M41.632,10.979a8.334,8.334,0,0,0-8.15,6.469l.869.2A7.476,7.476,0,1,1,44,26.44l.282.846a8.369,8.369,0,0,0-2.646-16.308Z" transform="translate(-26.789 -10.979)"/><path class="a" d="M51.693,29.316l3.441-3.132-.6-.66-3.389,3.085-4.179-4.255-.637.625,4.8,4.889Z" transform="translate(-35.815 -20.376)"/></g></g></svg>