<svg xmlns="http://www.w3.org/2000/svg" viewBox="0 0 23.178 24.7"><defs><style>.a{fill:#0067b8;}</style></defs><g transform="translate(-28.501 -14.42)"><path class="a" d="M33.6,14.42H18.807L15,16.955c-1.489.879-2.142,1.4-2.142,2.662V37.441a1.671,1.671,0,0,0,.771,1.471,1.486,1.486,0,0,0,.767.208,1.92,1.92,0,0,0,.917-.25l3.879-2.447H33.6a2.445,2.445,0,0,0,2.442-2.442V16.863A2.445,2.445,0,0,0,33.6,14.42Zm0,.6a1.844,1.844,0,0,1,1.842,1.842v9.125H34.077V16.3H20.764v9.688H19.407V15.02Zm-.118,10.967H21.363V16.9H33.478ZM15.012,38.353a.987.987,0,0,1-1.551-.912V19.618c0-.924.394-1.288,1.855-2.15L18.8,15.132l.008,20.825ZM33.6,35.823H19.407V26.588H35.438v7.393A1.844,1.844,0,0,1,33.6,35.823ZM31.308,23.647h-8.39v-.6h8.39Zm0-1.666h-8.39v-.6h8.39Zm-4.638-2.333H22.918v-.6h3.751Z" transform="translate(15.64 0)"/></g></svg>