<svg xmlns="http://www.w3.org/2000/svg" viewBox="0 0 25.516 27.328"><defs><style>.a{fill:#0067b8;}</style></defs><g transform="translate(-7.984 -5)"><path class="a" d="M68.386,68.446H66.621V66.682a.581.581,0,0,0-1.163,0v1.764H63.695a.581.581,0,1,0,0,1.163h1.764v1.763a.581.581,0,1,0,1.163,0V69.609h1.764a.581.581,0,0,0,0-1.163Z" transform="translate(-38.389 -42.548)"/><path class="a" d="M23.053,50.158H33.341a.581.581,0,1,0,0-1.163H23.053a.581.581,0,1,0,0,1.163Z" transform="translate(-10.089 -30.636)"/><path class="a" d="M23.053,37.59H33.341a.581.581,0,1,0,0-1.163H23.053a.581.581,0,1,0,0,1.163Z" transform="translate(-10.089 -21.884)"/><path class="a" d="M23.053,25.018H28.57a.581.581,0,0,0,0-1.163H23.053a.581.581,0,0,0,0,1.163Z" transform="translate(-10.089 -13.13)"/><path class="a" d="M28.232,20.66V11.6a1.386,1.386,0,0,0-.376-.907L22.542,5.376A1.387,1.387,0,0,0,21.634,5H9.728A1.746,1.746,0,0,0,7.984,6.744V27.321a1.746,1.746,0,0,0,1.744,1.744H22.412a5.846,5.846,0,1,0,5.82-8.4ZM22.507,6.985l3.741,3.74H23.088a.582.582,0,0,1-.581-.581ZM21.8,26.48a5.82,5.82,0,0,0,.182,1.423H9.728a.583.583,0,0,1-.581-.582V6.744a.582.582,0,0,1,.581-.581H21.344v3.981a1.746,1.746,0,0,0,1.744,1.744h3.981V20.66A5.822,5.822,0,0,0,23.7,22.176H12.965a.581.581,0,0,0,0,1.163h9.76A5.812,5.812,0,0,0,21.8,26.48Zm5.849,4.686a4.686,4.686,0,1,1,4.686-4.686A4.692,4.692,0,0,1,27.651,31.165Z"/></g></svg>