<svg xmlns="http://www.w3.org/2000/svg" viewBox="0 0 24.501 24.501"><defs><style>.a{fill:#0067b8;}</style></defs><path class="a" d="M35.713,15.88H20.548a4.668,4.668,0,0,0-4.668,4.668V35.713a4.668,4.668,0,0,0,4.668,4.668H35.713a4.668,4.668,0,0,0,4.668-4.668V20.548a4.668,4.668,0,0,0-4.668-4.668ZM20.548,16.6h7.224V27.771H16.6V20.548A3.949,3.949,0,0,1,20.548,16.6ZM16.6,35.713V28.489H27.771V39.663H20.548A3.949,3.949,0,0,1,16.6,35.713Zm19.115,3.949H28.489V28.489H39.663v7.224A3.949,3.949,0,0,1,35.713,39.663Zm3.949-11.891H28.489V16.6h7.224a3.949,3.949,0,0,1,3.949,3.949Z" transform="translate(-15.88 -15.88)"/><path class="a" d="M62.686,29.043H60.531V26.889a.359.359,0,0,0-.718,0v2.154H57.659a.359.359,0,1,0,0,.718h2.154v2.154a.359.359,0,1,0,.718,0V29.761h2.154a.359.359,0,1,0,0-.718Z" transform="translate(-42.429 -22.706)"/><path class="a" d="M63.288,64.52H58.6a.359.359,0,0,0,0,.718h4.689a.359.359,0,1,0,0-.718Z" transform="translate(-43.031 -47.056)"/><path class="a" d="M25.789,29.628h5.048a.359.359,0,0,0,0-.718H25.789a.359.359,0,1,0,0,.718Z" transform="translate(-22.001 -24.232)"/><path class="a" d="M25.789,37.458h5.048a.359.359,0,0,0,0-.718H25.789a.359.359,0,0,0,0,.718Z" transform="translate(-22.001 -29.25)"/><path class="a" d="M28.634,61.267l1.8-1.8a.359.359,0,0,0-.506-.506l-1.8,1.8-1.8-1.8a.359.359,0,0,0-.506.506l1.8,1.8-1.8,1.8a.359.359,0,1,0,.506.506l1.8-1.8,1.8,1.8a.359.359,0,0,0,.506-.506Z" transform="translate(-22.175 -43.441)"/></svg>