<svg xmlns="http://www.w3.org/2000/svg" viewBox="0 0 43.659 33.964"><defs><style>.a{fill:#747474;}</style></defs><g transform="translate(-5 -14.996)"><g transform="translate(5 14.996)"><g transform="translate(0 0)"><path class="a" d="M-60.982,922.615a1.508,1.508,0,0,0-1.3,1.455V926.5H-65.2c-.05,0-.1,0-.152,0a1.507,1.507,0,0,0-1.3,1.455v24.255a1.513,1.513,0,0,0,1.455,1.455h15.038c2.11,0,3.311.665,4.032,2.107a1.488,1.488,0,0,0,1.3.808,1.488,1.488,0,0,0,1.3-.808c.721-1.442,1.922-2.107,4.032-2.107h15.038a1.513,1.513,0,0,0,1.455-1.455V927.951a1.512,1.512,0,0,0-1.455-1.455h-2.911V924.07a1.512,1.512,0,0,0-1.455-1.455H-39.487a7.065,7.065,0,0,0-5.336,2.471,7.065,7.065,0,0,0-5.336-2.471H-60.831C-60.881,922.613-60.932,922.613-60.982,922.615Zm1.607,2.911h9.217c1.909,0,3.881,1.85,3.881,3.4V948.8a8.266,8.266,0,0,0-5.821-2.41h-7.276Zm19.889,0h9.217v20.859h-7.276a8.266,8.266,0,0,0-5.821,2.41V928.921c0-1.545,1.972-3.4,3.881-3.4Zm-24.255,3.88h1.455V947.84a1.512,1.512,0,0,0,1.455,1.455H-52.1a5.38,5.38,0,0,1,4.048,1.713,8.736,8.736,0,0,0-2.107-.258H-63.741Zm36.382,0H-25.9v21.344H-39.487a8.736,8.736,0,0,0-2.107.258,5.38,5.38,0,0,1,4.048-1.713h8.732a1.512,1.512,0,0,0,1.455-1.455Z" transform="translate(66.652 -922.613)"/></g></g></g></svg>