<svg xmlns="http://www.w3.org/2000/svg" viewBox="0 0 19.751 18.051"><defs><style>.a{fill:#474747;}</style></defs><g transform="translate(0 0)"><path class="a" d="M26.666,11.087a.362.362,0,0,0-.336-.157H10.9L10.61,9.136a.432.432,0,0,0-.426-.336H7.426a.426.426,0,1,0,0,.852h2.4l1.458,8.835a.284.284,0,0,0,.022.135l.493,2.96a.432.432,0,0,0,.426.336H24.042a.426.426,0,0,0,0-.852H12.606l-.359-2.2h12.2a.311.311,0,0,0,.247-.045.446.446,0,0,0,.179-.269l1.861-7.086A.425.425,0,0,0,26.666,11.087ZM12.09,18.039,11.059,11.8h14.71l-1.637,6.234Z" transform="translate(-7 -8.8)"/><path class="a" d="M31.551,71.9A1.951,1.951,0,1,0,33.5,73.851,1.952,1.952,0,0,0,31.551,71.9Zm-1.076,1.951a1.091,1.091,0,0,1,1.076-1.076A1.044,1.044,0,0,1,32.6,73.851a1.091,1.091,0,0,1-1.076,1.076A1.072,1.072,0,0,1,30.475,73.851Z" transform="translate(-24.532 -57.75)"/><path class="a" d="M63.351,71.9A1.951,1.951,0,1,0,65.3,73.851,1.952,1.952,0,0,0,63.351,71.9Zm-1.1,1.951a1.091,1.091,0,0,1,1.076-1.076A1.063,1.063,0,0,1,64.4,73.851a1.077,1.077,0,0,1-1.076,1.076A1.091,1.091,0,0,1,62.252,73.851Z" transform="translate(-49.201 -57.75)"/></g></svg>