<svg xmlns="http://www.w3.org/2000/svg" viewBox="0 0 78.406 92.091"><defs><style>.a{fill:#0e76bc;}</style></defs><g transform="translate(-15.42 -3.608)"><g transform="translate(15.42 3.608)"><path class="a" d="M25.011,39.465a4.964,4.964,0,0,0-3.5-8.472H20.217V40.93h1.289A4.853,4.853,0,0,0,25.011,39.465Z" transform="translate(4.636 9.176)"/><path class="a" d="M34.762,40.98a4.349,4.349,0,0,0,3.347-1.528,5.358,5.358,0,0,0,.009-7.173,4.344,4.344,0,0,0-3.358-1.528,4.4,4.4,0,0,0-3.368,1.506,5.384,5.384,0,0,0,.01,7.214A4.406,4.406,0,0,0,34.762,40.98Z" transform="translate(9.208 9.063)"/><path class="a" d="M14.283,35.772V62.411A2.717,2.717,0,0,0,17,65.128H78.963a2.717,2.717,0,0,0,2.717-2.717V35.772a2.715,2.715,0,0,0-2.717-2.715H65.126L65.018,5.681a2.078,2.078,0,0,0-2.079-2.073H5.353A2.079,2.079,0,0,0,3.274,5.687V83.852a11.814,11.814,0,0,0,11.8,11.8l54.8.047a11.824,11.824,0,0,0,11.8-11.849A2.078,2.078,0,0,0,79.6,81.772H24.8a2.079,2.079,0,0,0-2.079,2.079,7.643,7.643,0,0,1-15.286,0V7.767H60.868l.1,25.29H17A2.715,2.715,0,0,0,14.283,35.772Zm12.408,50.16H77.247a7.654,7.654,0,0,1-7.366,5.611L24.053,91.5A11.752,11.752,0,0,0,26.691,85.932ZM60.06,43.267a7.482,7.482,0,0,1,5.364-2.213,7.585,7.585,0,0,1,4.8,1.621,1.19,1.19,0,0,1,.437.791,1.2,1.2,0,0,1-1.039,1.33,1.074,1.074,0,0,1-.852-.229,5.247,5.247,0,0,0-3.441-1.143,5.189,5.189,0,0,0-3.65,1.5,5.078,5.078,0,0,0-1.517,3.658,4.788,4.788,0,0,0,1.549,3.586A5.027,5.027,0,0,0,65.3,53.652a5.4,5.4,0,0,0,3.472-1.144,1.119,1.119,0,0,1,.852-.208,1.21,1.21,0,0,1,.811.437,1.181,1.181,0,0,1,.227.883,1.127,1.127,0,0,1-.437.78,7.585,7.585,0,0,1-4.8,1.621,7.407,7.407,0,0,1-5.364-2.193,7.285,7.285,0,0,1,0-10.561Zm-17.868-.01a6.839,6.839,0,0,1,10.085.031,7.51,7.51,0,0,1,2.068,5.27,7.339,7.339,0,0,1-2.1,5.24A6.718,6.718,0,0,1,50,55.43a6.541,6.541,0,0,1-2.722.593,6.7,6.7,0,0,1-5.083-2.2,7.775,7.775,0,0,1,0-10.563Zm-16.373-.645a1.139,1.139,0,0,1,1.146-1.144h2.453A7.285,7.285,0,0,1,34.553,53.89a6.976,6.976,0,0,1-5.135,2.131H26.965a1.139,1.139,0,0,1-1.146-1.144Z" transform="translate(-3.274 -3.608)"/></g></g></svg>