<svg xmlns="http://www.w3.org/2000/svg" viewBox="0 0 24.592 12.561">
  <defs>
    <style>
      .cls-1 {
        fill: #fff;
      }
    </style>
  </defs>
  <g id="Group_332" data-name="Group 332" transform="translate(-1101.408 -81.5)">
    <g id="noun_Email_232463" transform="translate(1094.172 55.3)">
      <path id="Path_541" data-name="Path 541" class="cls-1" d="M25.527,26.2H13.337a2.567,2.567,0,0,0-2.565,2.565V36.2a2.567,2.567,0,0,0,2.565,2.565h12.19A2.567,2.567,0,0,0,28.092,36.2V28.765A2.567,2.567,0,0,0,25.527,26.2Zm1.454,10.022a1.467,1.467,0,0,1-1.454,1.454H13.337a1.467,1.467,0,0,1-1.454-1.454V28.765a1.467,1.467,0,0,1,1.454-1.454h12.19a1.467,1.467,0,0,1,1.454,1.454Zm-1.428-.714a.577.577,0,0,1,.053.793.526.526,0,0,1-.423.185.632.632,0,0,1-.37-.132l-3.808-3.411-1.243.952a.612.612,0,0,1-.688,0l-1.19-.926-3.834,3.385a.5.5,0,0,1-.37.132.526.526,0,0,1-.423-.185.552.552,0,0,1,.053-.793l3.676-3.226-3.649-2.829a.566.566,0,1,1,.688-.9L18.2,31.806h0l1.216.952,5.394-4.178a.566.566,0,1,1,.688.9l-3.6,2.777ZM10.031,32.493a.559.559,0,0,1-.555.555H5.88a.555.555,0,1,1,0-1.111H9.45A.565.565,0,0,1,10.031,32.493ZM3.5,30.114a.559.559,0,0,1,.555-.555H9.45a.555.555,0,0,1,0,1.111H4.055A.559.559,0,0,1,3.5,30.114Zm6.531,4.76a.559.559,0,0,1-.555.555H7.123a.555.555,0,0,1,0-1.111H9.45A.582.582,0,0,1,10.031,34.873Z" transform="translate(3.736 0)"/>
    </g>
  </g>
</svg>
