<svg xmlns="http://www.w3.org/2000/svg" viewBox="0 0 22.143 14.27"><defs><style>.a{fill:#b4b4b4;}</style></defs><g transform="translate(-929.857 -281.086)"><g transform="translate(914.91 260.086)"><g transform="translate(14.947 21)"><path class="a" d="M6.476,973.362A1.484,1.484,0,0,0,5,974.838v11.318a1.484,1.484,0,0,0,1.476,1.476H25.667a1.484,1.484,0,0,0,1.476-1.476V974.838a1.484,1.484,0,0,0-1.476-1.476Zm.3.984H25.367l-8.826,7.719a.841.841,0,0,1-.938,0l-8.826-7.719Zm-.792.623,6.289,5.49-6.289,5.567Zm20.175,0v11.056l-6.289-5.567Zm-13.14,6.143,1.938,1.692a1.7,1.7,0,0,0,2.23,0l1.938-1.692,6.266,5.536H6.753l6.266-5.536Z" transform="translate(-5 -973.362)"/></g></g></g></svg>