<svg xmlns="http://www.w3.org/2000/svg" viewBox="0 0 14.954 14.954"><defs><style>.a{fill:#3c5a99;}.b{fill:#fff;}</style></defs><g transform="translate(-4.588 -4.588)"><path class="a" d="M18.717,19.542a.825.825,0,0,0,.825-.825V5.413a.825.825,0,0,0-.825-.825H5.413a.825.825,0,0,0-.825.825v13.3a.825.825,0,0,0,.825.825Z"/><path class="b" d="M112.937,56.207V50.416h1.944l.291-2.257h-2.235V46.719c0-.653.181-1.1,1.118-1.1h1.2V43.6a15.976,15.976,0,0,0-1.741-.089,2.719,2.719,0,0,0-2.9,2.983V48.16h-1.949v2.257h1.949v5.791Z" transform="translate(-98.031 -36.665)"/></g></svg>