<svg xmlns="http://www.w3.org/2000/svg" viewBox="0 0 91.621 92.691"><defs><style>.a{fill:#0e76bc;}</style></defs><g transform="translate(-2.631 0)"><path class="a" d="M58.345,46.6a5.219,5.219,0,0,0,2.993,7.442,3.386,3.386,0,0,1,2.176,2.176,5.261,5.261,0,0,0,1.419,2.225,5.171,5.171,0,0,0,3.539,1.37,5.384,5.384,0,0,0,3.81-1.568L87.135,43.394a5.339,5.339,0,0,0,.2-7.348,5.259,5.259,0,0,0-2.225-1.419,3.387,3.387,0,0,1-2.176-2.176,5.219,5.219,0,0,0-7.442-2.992L59.245,13.212A5.219,5.219,0,0,0,56.252,5.77a3.387,3.387,0,0,1-2.176-2.176A5.261,5.261,0,0,0,52.658,1.37a5.339,5.339,0,0,0-7.349.2L30.455,16.423a5.339,5.339,0,0,0-.2,7.348,5.26,5.26,0,0,0,2.225,1.419,3.388,3.388,0,0,1,2.176,2.176,5.258,5.258,0,0,0,1.419,2.225,5.172,5.172,0,0,0,3.539,1.37,5.43,5.43,0,0,0,2.485-.6l4.57,4.57-42.4,42.4a5.589,5.589,0,0,0,7.9,7.9l42.4-42.4ZM85.4,37.846h0a2.675,2.675,0,0,1-.133,3.68L70.412,56.381a2.675,2.675,0,0,1-3.68.133,2.578,2.578,0,0,1-.706-1.1,5.982,5.982,0,0,0-.643-1.366L82.93,36.5a5.992,5.992,0,0,0,1.365.643A2.578,2.578,0,0,1,85.4,37.846ZM79.714,32.16a2.578,2.578,0,0,1,.706,1.1,5.99,5.99,0,0,0,.643,1.366L63.515,52.176a5.992,5.992,0,0,0-1.365-.643,2.578,2.578,0,0,1-1.1-.705,2.675,2.675,0,0,1,.132-3.679l7.428-7.428,7.427-7.427a2.746,2.746,0,0,1,1.94-.8A2.539,2.539,0,0,1,79.714,32.16ZM32.189,21.971a2.675,2.675,0,0,1,.133-3.68L47.177,3.437a2.746,2.746,0,0,1,1.94-.8,2.54,2.54,0,0,1,1.74.67,2.578,2.578,0,0,1,.706,1.1,5.988,5.988,0,0,0,.643,1.365L34.659,23.32a5.99,5.99,0,0,0-1.366-.643A2.576,2.576,0,0,1,32.189,21.971Zm5.687,5.687a2.573,2.573,0,0,1-.705-1.1,5.989,5.989,0,0,0-.643-1.365L54.074,7.641a5.992,5.992,0,0,0,1.365.643,2.576,2.576,0,0,1,1.1.705h0a2.675,2.675,0,0,1-.133,3.68L41.555,27.524A2.675,2.675,0,0,1,37.876,27.658Zm19.68-12.4L73.443,31.147l-6.7,6.7-6.7,6.7L44.146,28.67ZM10.3,83.368A2.947,2.947,0,0,1,6.134,79.2l42.4-42.4L52.7,40.965Z" transform="translate(0 0)"/><path class="a" d="M253.809,373.449a1.318,1.318,0,0,0-.27-.8l-5.375-7.022v-3.211a1.321,1.321,0,0,0-1.321-1.321H209.856a1.321,1.321,0,0,0-1.321,1.321v3.211l-5.375,7.022a1.318,1.318,0,0,0-.27.8l0,5.629a1.321,1.321,0,0,0,1.321,1.321H252.49a1.321,1.321,0,0,0,1.321-1.321Zm-42.632-9.715h34.346v1.016H211.177Zm-.669,3.658h35.683l3.625,4.736H206.884Zm-4.978,10.365V374.77h45.639v2.987Z" transform="translate(-159.559 -287.708)"/><path class="a" d="M278.887,105.174a1.321,1.321,0,1,0,1.868-1.868L269.889,92.439a1.321,1.321,0,0,0-1.868,1.868Z" transform="translate(-211.146 -73.345)"/></g></svg>