<svg xmlns="http://www.w3.org/2000/svg" viewBox="0 0 23.309 23.309"><g transform="translate(-157.838 -156.842)"><g transform="translate(157.838 156.842)"><path d="M16.655,5A11.655,11.655,0,1,0,28.309,16.655,11.666,11.666,0,0,0,16.655,5Zm0,1.554a10.1,10.1,0,1,1-10.1,10.1A10.089,10.089,0,0,1,16.655,6.554ZM16.4,11.216a1.036,1.036,0,1,0,1.036,1.036A1.036,1.036,0,0,0,16.4,11.216Zm-1.117,2.59a.778.778,0,1,0,.081,1.554h.518v5.18H15.36a.778.778,0,1,0,0,1.554h2.59a.777.777,0,1,0,0-1.554h-.518V14.583a.777.777,0,0,0-.777-.777h-1.3a.776.776,0,0,0-.081,0Z" transform="translate(-5 -5)"/></g></g></svg>