<svg xmlns="http://www.w3.org/2000/svg" viewBox="0 0 6.642 13.251"><defs><style>.a{fill:#0067b8;}</style></defs><g transform="translate(-26.836 -26.364)"><g transform="translate(26.836 26.364)"><path class="a" d="M19,20.705c-.205.538-.407,1.014-.571,1.5-.523,1.564-1.065,3.123-1.533,4.7-.271.914.112,1.531.916,1.644a2.532,2.532,0,0,0,.9-.026c1.767-.4,2.553-1.833,3.359-3.235a3.587,3.587,0,0,0-.459.44,4.01,4.01,0,0,1-1.584,1.09.444.444,0,0,1-.342-.038c-.046-.03-.021-.2,0-.3a3.054,3.054,0,0,1,.154-.385c.687-1.665,1.383-3.326,2.053-5a2.074,2.074,0,0,0,.162-.936,1.224,1.224,0,0,0-1.36-.935,4.8,4.8,0,0,0-4.164,2.516,1.151,1.151,0,0,0-.068.271A4.348,4.348,0,0,1,19,20.705Z" transform="translate(-16.463 -15.332)"/><ellipse class="a" cx="1.756" cy="1.756" rx="1.756" ry="1.756" transform="translate(3.13 0)"/></g></g></svg>