<svg xmlns="http://www.w3.org/2000/svg" viewBox="0 0 34.846 47.992"><defs><style>.a{fill:#fff;fill-rule:evenodd;}</style></defs><g transform="translate(-529.571 -97.092)"><g transform="translate(529.571 97.092)"><path class="a" d="M17.319,0A17.455,17.455,0,0,1,34.846,17.319,17.633,17.633,0,0,1,17.319,34.846,17.455,17.455,0,0,1,0,17.319,17.276,17.276,0,0,1,17.319,0Zm0,10.85a6.574,6.574,0,1,1-6.468,6.468A6.548,6.548,0,0,1,17.319,10.85Z"/><path class="a" d="M52,217.845c1.252-1.461,11.894-1.461,12.937,0l.209,1.669H52Z" transform="translate(-41.15 -171.523)"/><path class="a" d="M51,165c2.3,3.547,5.008,6.886,6.677,9.39,1.878-2.5,4.591-5.842,6.886-9.39A18.992,18.992,0,0,1,51,165Z" transform="translate(-40.358 -130.571)"/></g></g></svg>