<svg xmlns="http://www.w3.org/2000/svg" viewBox="0 0 39.914 40.579"><defs><style>.a,.b{fill:#fff;}.a{fill-rule:evenodd;}</style></defs><g transform="translate(0 0)"><path class="a" d="M23,1038.11V1049.7h1.288V1038.11Z" transform="translate(6.619 -1015.888)"/><path class="a" d="M25.5,1038.11V1049.7h1.288V1038.11Z" transform="translate(7.339 -1015.888)"/><path class="a" d="M23.932,1046.61A1.942,1.942,0,0,0,22,1048.542v.966h1.288v-.966a.634.634,0,0,1,.644-.644h3.221a.634.634,0,0,1,.644.644v.966h1.288v-.966a1.942,1.942,0,0,0-1.932-1.932Z" transform="translate(6.33 -1013.439)"/><path class="a" d="M22,1036.36v.966a1.942,1.942,0,0,0,1.932,1.932h3.221a1.942,1.942,0,0,0,1.932-1.932v-.966H27.8v.966a.634.634,0,0,1-.644.644H23.932a.634.634,0,0,1-.644-.644v-.966Z" transform="translate(6.33 -1016.393)"/><path class="a" d="M13.75,1038.11V1049.7h1.288V1038.11Z" transform="translate(3.953 -1015.888)"/><path class="a" d="M16.25,1038.11V1049.7h1.288V1038.11Z" transform="translate(4.673 -1015.888)"/><path class="a" d="M14.682,1046.61a1.942,1.942,0,0,0-1.932,1.932v.966h1.288v-.966a.634.634,0,0,1,.644-.644H17.9a.634.634,0,0,1,.644.644v.966h1.288v-.966a1.942,1.942,0,0,0-1.932-1.932Z" transform="translate(3.665 -1013.439)"/><path class="a" d="M12.75,1036.36v.966a1.942,1.942,0,0,0,1.932,1.932H17.9a1.942,1.942,0,0,0,1.932-1.932v-.966H18.547v.966a.634.634,0,0,1-.644.644H14.682a.634.634,0,0,1-.644-.644v-.966Z" transform="translate(3.665 -1016.393)"/><path class="b" d="M.652,1051.36a.644.644,0,0,0,0,1.288H39.278a.644.644,0,1,0,0-1.288H.652Z" transform="translate(-0.008 -1012.07)"/><path class="a" d="M15.644,1020.86a.644.644,0,0,0-.644.644v8.373h1.288v-7.729h5.8v2.576H17.254v1.288h5.475a.644.644,0,0,0,.644-.644V1021.5a.644.644,0,0,0-.644-.644Z" transform="translate(4.313 -1020.86)"/><path class="b" d="M2.144,1049.36a.644.644,0,1,0,0,1.288H36.926a.644.644,0,0,0,0-1.288Z" transform="translate(0.422 -1012.646)"/><path class="a" d="M4.5,1038.11V1049.7H5.788V1038.11Z" transform="translate(1.287 -1015.888)"/><path class="a" d="M7,1038.11V1049.7H8.288V1038.11Z" transform="translate(2.007 -1015.888)"/><path class="a" d="M5.432,1046.61a1.942,1.942,0,0,0-1.932,1.932v.966H4.788v-.966a.634.634,0,0,1,.644-.644H8.653a.634.634,0,0,1,.644.644v.966h1.288v-.966a1.942,1.942,0,0,0-1.932-1.932Z" transform="translate(0.999 -1013.439)"/><path class="a" d="M3.5,1036.36v.966a1.942,1.942,0,0,0,1.932,1.932H8.653a1.942,1.942,0,0,0,1.932-1.932v-.966H9.3v.966a.634.634,0,0,1-.644.644H5.432a.634.634,0,0,1-.644-.644v-.966Z" transform="translate(0.999 -1016.393)"/><path class="b" d="M19.636,1026.86a.645.645,0,0,0-.229.058l-18.035,8.373a.644.644,0,0,0-.372.586v1.932a.644.644,0,0,0,.644.644h36.07a.644.644,0,0,0,.644-.644v-1.932a.644.644,0,0,0-.372-.584l-18.035-8.373a.646.646,0,0,0-.314-.058Zm.043,1.354,17.391,8.074v.876H2.288v-.876Z" transform="translate(0.278 -1019.131)"/><path class="b" d="M16.076,1029.86a2.576,2.576,0,1,0,2.576,2.576A2.586,2.586,0,0,0,16.076,1029.86Zm0,1.288a1.288,1.288,0,1,1-1.288,1.288A1.279,1.279,0,0,1,16.076,1031.148Z" transform="translate(3.881 -1018.266)"/></g></svg>