<svg xmlns="http://www.w3.org/2000/svg" viewBox="0 0 35.773 47.598"><defs><style>.a{fill:#fff;}</style></defs><g transform="translate(-18.272 -7.71)"><path class="a" d="M21.129,36a.7.7,0,0,0,.276-.062.681.681,0,0,0,.343-.9C15.21,20.426,24.87,9.072,36.123,9.072A16.462,16.462,0,0,1,52.682,25.619a23.071,23.071,0,0,1-2.386,9.16.681.681,0,0,0,1.238.563,24.381,24.381,0,0,0,2.509-9.711A17.824,17.824,0,0,0,36.123,7.71C23.745,7.71,13.618,20.178,20.5,35.594A.681.681,0,0,0,21.129,36Z"/><path class="a" d="M26.306,46.242a.675.675,0,0,0,.073.563A68.078,68.078,0,0,0,37.305,59.976c.889.844,1.547,1.423,1.857,1.688h0l.208.18a.686.686,0,0,0,.911,0l.186-.18c.281-.27.866-.844,1.688-1.688A80.945,80.945,0,0,0,53.127,45.724a.709.709,0,0,0,.039-.6A4.8,4.8,0,0,0,50.494,42.4h0l-6.06-2.594.056-.405c.6-.563,2.425-2.566,2.549-4.687A2.962,2.962,0,0,0,47.1,31.1v-1.98a5.947,5.947,0,0,0-.332-1.964,4.141,4.141,0,0,0,1.857-2.442,3.376,3.376,0,0,0,.152-.973.681.681,0,0,0-.681-.681H39.061a5.874,5.874,0,0,0-6.127,6.06v2a3.055,3.055,0,0,0,.062,3.6c.129,2.121,1.958,4.1,2.554,4.687l.056.405L29.547,42.4a5.576,5.576,0,0,0-3.241,3.843Zm10.319-5.39a.7.7,0,0,0,.405-.726L36.861,39a.664.664,0,0,0-.214-.405s-2.3-2.127-2.3-4.1a.675.675,0,0,0-.146-.422,1.776,1.776,0,0,1-.09-2.251.664.664,0,0,0,.186-.461V29.115a4.5,4.5,0,0,1,4.76-4.681h8.226a2.5,2.5,0,0,1-1.57,1.688.681.681,0,0,0-.467.951,4.557,4.557,0,0,1,.478,2.042v2.251a.67.67,0,0,0,.208.489c.889.866,0,2.076-.113,2.206a.681.681,0,0,0-.152.422c0,1.969-2.251,4.073-2.3,4.1a.7.7,0,0,0-.214.405L43,40.109a.692.692,0,0,0,.084.439.67.67,0,0,0-.456,0l-2.2.821a.675.675,0,0,0-.411.428v.028a.242.242,0,0,1,0-.028.675.675,0,0,0-.411-.428l-2.054-.737A.681.681,0,1,0,37.08,41.9l1.232.461-.563.81a.675.675,0,0,0,.045.827l.827.962L37.317,50.67a.681.681,0,0,0,1.328.3l1.373-6.009,1.294,6a.681.681,0,1,0,1.328-.287l-1.227-5.716.816-.951a.675.675,0,0,0,.051-.827l-.563-.81,1.39-.518a.686.686,0,0,0,.4-.878.851.851,0,0,0-.051-.1l6.493,2.813h0a3.415,3.415,0,0,1,1.812,1.688,78.256,78.256,0,0,1-10.6,13.65c-.563.613-1.058,1.08-1.373,1.39-.349-.309-.878-.782-1.542-1.412A67.2,67.2,0,0,1,27.7,46.349a4.141,4.141,0,0,1,2.357-2.7Zm4.237,2.661-.675.8a.72.72,0,0,0-.146.264.636.636,0,0,0-.141-.264l-.7-.8.748-1.125a.658.658,0,0,0,.09-.2.67.67,0,0,0,.1.2Z" transform="translate(-3.5 -6.709)"/></g></svg>