<svg xmlns="http://www.w3.org/2000/svg" viewBox="0 0 41.501 41.501"><defs><style>.a{fill:#fff;}</style></defs><path class="a" d="M49.475,15.88H23.786a7.906,7.906,0,0,0-7.906,7.906V49.475a7.906,7.906,0,0,0,7.906,7.906H49.475a7.906,7.906,0,0,0,7.906-7.906V23.786a7.906,7.906,0,0,0-7.906-7.906ZM23.786,17.1H36.022V36.022H17.1V23.786a6.69,6.69,0,0,1,6.69-6.69ZM17.1,49.475V37.239H36.022V56.165H23.786A6.69,6.69,0,0,1,17.1,49.475Zm32.378,6.69H37.239V37.239H56.165V49.475A6.69,6.69,0,0,1,49.475,56.165Zm6.69-20.142H37.239V17.1H49.475a6.69,6.69,0,0,1,6.69,6.69Z" transform="translate(-15.88 -15.88)"/><path class="a" d="M66.422,30.787H62.773V27.138a.608.608,0,0,0-1.216,0v3.649H57.908a.608.608,0,1,0,0,1.216h3.649v3.649a.608.608,0,1,0,1.216,0V32h3.649a.608.608,0,1,0,0-1.216Z" transform="translate(-32.11 -20.053)"/><path class="a" d="M66.791,64.52H58.848a.608.608,0,1,0,0,1.216h7.943a.608.608,0,1,0,0-1.216Z" transform="translate(-32.478 -34.939)"/><path class="a" d="M26.038,30.126h8.551a.608.608,0,0,0,0-1.216H26.038a.608.608,0,1,0,0,1.216Z" transform="translate(-19.622 -20.986)"/><path class="a" d="M26.038,37.956h8.551a.608.608,0,0,0,0-1.216H26.038a.608.608,0,0,0,0,1.216Z" transform="translate(-19.622 -24.054)"/><path class="a" d="M30.669,62.924l3.041-3.041a.608.608,0,0,0-.857-.857l-3.041,3.041-3.041-3.041a.608.608,0,0,0-.858.857l3.041,3.041-3.041,3.041a.608.608,0,1,0,.858.858l3.041-3.041,3.041,3.041a.608.608,0,0,0,.858-.858Z" transform="translate(-19.728 -32.729)"/></svg>