<svg xmlns="http://www.w3.org/2000/svg" viewBox="0 0 44.427 47.345"><defs><style>.a{fill:#fff;}</style></defs><g transform="translate(-28.501 -14.42)"><path class="a" d="M52.606,14.42H24.259l-7.293,4.86c-2.855,1.684-4.106,2.676-4.106,5.1V58.546a3.2,3.2,0,0,0,1.479,2.82,2.849,2.849,0,0,0,1.469.4,3.68,3.68,0,0,0,1.757-.48L25,56.6H52.606a4.687,4.687,0,0,0,4.681-4.681V19.1A4.687,4.687,0,0,0,52.606,14.42Zm0,1.15A3.535,3.535,0,0,1,56.137,19.1V36.593H53.528V18.024H28.01V36.593h-2.6V15.57ZM52.38,36.593H29.158V19.171H52.38Zm-35.4,23.7a2.055,2.055,0,0,1-2.057.083,2.041,2.041,0,0,1-.917-1.831V24.383c0-1.772.754-2.469,3.555-4.122l6.679-4.476L24.259,55.7Zm35.622-4.85h-27.2v-17.7H56.137V51.914A3.535,3.535,0,0,1,52.606,55.445ZM48.22,32.105H32.139v-1.15H48.22Zm0-3.194H32.139v-1.15H48.22Zm-8.891-4.471H32.139V23.29h7.191Z" transform="translate(15.64 0)"/></g></svg>