<svg xmlns="http://www.w3.org/2000/svg" viewBox="0 0 40.478 38.373"><defs><style>.a{fill:#fff;}</style></defs><g transform="translate(79.951 -68.138)"><path class="a" d="M50.317,19.784H41.041v-2.1a2.619,2.619,0,0,0-1.4-2.245l-1.976-.965a5.393,5.393,0,0,0-2.091-.483H28.924a5.382,5.382,0,0,0-2.089.484l-1.972.964a2.619,2.619,0,0,0-1.4,2.245v2.1H14.184a2.175,2.175,0,0,0-2.172,2.172V35.642a2.232,2.232,0,0,0,.97,1.838V49.447a2.421,2.421,0,0,0,2.227,2.4c.067,0,6.872.51,17.041.51s16.973-.506,17.042-.51a2.421,2.421,0,0,0,2.227-2.4V37.482a2.24,2.24,0,0,0,.971-1.84V21.956A2.177,2.177,0,0,0,50.317,19.784ZM25.8,17.7a.408.408,0,0,1,.1-.164l1.96-.958a3.187,3.187,0,0,1,1.061-.246h6.647a3.155,3.155,0,0,1,1.06.246l1.965.958a.451.451,0,0,1,.1.164v2.087H25.8Zm-3.842,4.628H42.543V35.7c-2.023.068-4.35.125-6.89.155a2.106,2.106,0,0,0-2.095-1.918H30.943a2.106,2.106,0,0,0-2.094,1.918c-2.541-.03-4.868-.087-6.89-.155Zm11.73,13.713v2.21a.136.136,0,0,1-.131.132H30.943a.137.137,0,0,1-.133-.132v-2.21a.135.135,0,0,1,.133-.131h2.614A.133.133,0,0,1,33.689,36.038Zm-19.137-.681V22.325h4.937V35.606C16.965,35.5,15.208,35.4,14.552,35.356ZM48.979,49.324c-.955.067-7.4.493-16.728.493s-15.775-.428-16.728-.493V37.958c.929.052,2.286.121,3.966.189v2.287a1.235,1.235,0,0,0,2.469,0v-2.2c2.026.067,4.353.125,6.888.156a2.1,2.1,0,0,0,2.1,1.957h2.614a2.106,2.106,0,0,0,2.1-1.957c2.534-.03,4.862-.087,6.888-.156v2.2a1.234,1.234,0,0,0,2.469,0V38.147c1.681-.067,3.038-.137,3.967-.189Zm.971-13.968c-.655.041-2.415.146-4.938.25V22.325H49.95Z" transform="translate(-91.964 54.151)"/></g></svg>