<svg xmlns="http://www.w3.org/2000/svg" viewBox="0 0 38.378 48.39"><defs><style>.a{fill:#fff;fill-rule:evenodd;}</style></defs><g transform="translate(-182 -546.805)"><g transform="translate(155 525.805)"><g transform="translate(27 21)"><path class="a" d="M50.361,21a6.694,6.694,0,0,1,6.674,6.675V56.041a6.694,6.694,0,0,1-6.674,6.675H33.674A6.694,6.694,0,0,1,27,56.041V27.675A6.694,6.694,0,0,1,33.674,21ZM58.7,27.675a6.694,6.694,0,0,1,6.675,6.674V62.716A6.694,6.694,0,0,1,58.7,69.39H42.018a6.694,6.694,0,0,1-6.674-6.675h2.51a4.169,4.169,0,0,0,4.164,4.164H58.7a4.169,4.169,0,0,0,4.164-4.164V34.349A4.169,4.169,0,0,0,58.7,30.185H57.035v-2.51ZM50.361,23.5H33.674A4.176,4.176,0,0,0,29.5,27.675V56.041a4.176,4.176,0,0,0,4.172,4.172H50.361a4.176,4.176,0,0,0,4.172-4.172V27.675A4.176,4.176,0,0,0,50.361,23.5ZM34.092,31.012h5.84a1.251,1.251,0,1,1,0,2.5h-5.84a1.251,1.251,0,1,1,0-2.5Zm0,5.006H49.944a1.251,1.251,0,1,1,0,2.5H34.092a1.251,1.251,0,0,1,0-2.5Zm0,4.172H49.944a1.251,1.251,0,1,1,0,2.5H34.092a1.251,1.251,0,1,1,0-2.5ZM44.1,50.2h5.84a1.251,1.251,0,1,1,0,2.5H44.1a1.251,1.251,0,1,1,0-2.5Z" transform="translate(-27 -21)"/></g></g></g></svg>