<svg xmlns="http://www.w3.org/2000/svg" viewBox="0 0 26.048 26.048"><g transform="translate(-3.976 -9.992)"><path d="M59.153,54.6a.326.326,0,0,0,.287,0c2.205-1.081,3.371-3.351,3.2-6.226l0-.066a.326.326,0,0,0-.325-.333c-1.033,0-1.107-.614-1.112-.733a.326.326,0,0,0-.326-.323H57.7a.33.33,0,0,0-.325.319c0,.123-.079.737-1.112.737a.332.332,0,0,0-.326.329l0,.069C55.774,51.252,56.947,53.522,59.153,54.6Zm-2.577-5.991a1.507,1.507,0,0,0,1.4-1.039H60.6a1.508,1.508,0,0,0,1.4,1.04,5.483,5.483,0,0,1-2.7,5.333A5.509,5.509,0,0,1,56.577,48.613Z" transform="translate(-36.993 -24.906)"/><path d="M11.131,36.04H29.85a1.133,1.133,0,0,0,1.131-1.131V31.647h4.741a.326.326,0,0,0,.326-.326V20.427a.326.326,0,0,0-.326-.326H30.981V11.124A1.133,1.133,0,0,0,29.85,9.992H11.131A1.133,1.133,0,0,0,10,11.124V34.908A1.133,1.133,0,0,0,11.131,36.04ZM35.4,31H20.816V20.752H35.4ZM25.049,12.439v.425a.829.829,0,0,1-.838.818H16.77a.829.829,0,0,1-.838-.818v-.425h9.117Zm-9.117-.651V10.643h9.117v1.144Zm.838,2.546h7.442A1.481,1.481,0,0,0,25.7,12.864v-.425h2.585V20.1H20.491a.326.326,0,0,0-.326.326V31.321a.326.326,0,0,0,.326.326h7.795v1.73H12.7V12.439h2.585v.425A1.481,1.481,0,0,0,16.77,14.334Zm13.56-3.21V20.1H28.937V12.113a.326.326,0,0,0-.326-.326H25.7V10.643h4.15A.481.481,0,0,1,30.33,11.124Zm-19.679,0a.481.481,0,0,1,.48-.48h4.15v1.144H12.37a.326.326,0,0,0-.326.326V33.7a.326.326,0,0,0,.326.326H28.611a.326.326,0,0,0,.326-.326V31.647H30.33v3.262a.481.481,0,0,1-.48.48H11.131a.481.481,0,0,1-.48-.48Z" transform="translate(-6.024)"/><path d="M41.545,27.55h4.884a.326.326,0,1,0,0-.651H41.545a.326.326,0,0,0,0,.651Z" transform="translate(-27.078 -11.402)"/><path d="M41.545,34.9h4.884a.326.326,0,1,0,0-.651H41.545a.326.326,0,0,0,0,.651Z" transform="translate(-27.078 -16.362)"/><path d="M26.186,27.094l1.026,1.026-1.026,1.026a.326.326,0,1,0,.46.46l1.026-1.026L28.7,29.606a.326.326,0,1,0,.46-.46L28.133,28.12l1.026-1.026a.326.326,0,1,0-.46-.46l-1.026,1.026-1.026-1.026a.326.326,0,1,0-.46.46Z" transform="translate(-16.875 -11.159)"/><path d="M29.159,46.631a.325.325,0,0,0-.46,0l-1.026,1.026-1.026-1.026a.326.326,0,1,0-.46.46l1.026,1.026-1.026,1.026a.326.326,0,1,0,.46.46l1.026-1.026L28.7,49.6a.326.326,0,0,0,.46-.46l-1.026-1.026,1.026-1.026A.325.325,0,0,0,29.159,46.631Z" transform="translate(-16.875 -24.645)"/><path d="M29.159,66.629a.325.325,0,0,0-.46,0l-1.026,1.026-1.026-1.026a.326.326,0,1,0-.46.46l1.026,1.026-1.026,1.026a.326.326,0,1,0,.46.46l1.026-1.026L28.7,69.6a.326.326,0,0,0,.46-.46l-1.026-1.026,1.026-1.026A.325.325,0,0,0,29.159,66.629Z" transform="translate(-16.875 -38.132)"/></g></svg>