<svg xmlns="http://www.w3.org/2000/svg" viewBox="0 0 15.519 16.28"><defs><style>.a{fill:#474747;}</style></defs><g transform="translate(-382.804 -150.988)"><g transform="translate(382.804 150.988)"><path class="a" d="M29.673,36.943h.913a1.674,1.674,0,1,0,3.347,0h.913a2.586,2.586,0,0,1-5.173,0Zm10.346-1.978v.305a1.063,1.063,0,0,1-1.065,1.064H25.565A1.065,1.065,0,0,1,24.5,35.27v-.305a1.979,1.979,0,0,1,1.826-1.971v-3.81a5.934,5.934,0,0,1,11.867,0v3.81A1.977,1.977,0,0,1,40.019,34.965ZM38.038,33.9a.76.76,0,0,1-.758-.759V29.183a5.021,5.021,0,0,0-10.042,0v3.958a.76.76,0,0,1-.758.759,1.066,1.066,0,0,0-1.068,1.064v.305a.152.152,0,0,0,.153.152H38.953a.151.151,0,0,0,.153-.152v-.305A1.065,1.065,0,0,0,38.038,33.9Z" transform="translate(-24.5 -23.25)"/></g></g></svg>