<svg xmlns="http://www.w3.org/2000/svg" viewBox="0 0 19.831 26.286"><g transform="translate(-8.031 -9.904)"><path d="M32.744,23.391h-.1V21.933a.283.283,0,0,0-.01-.047,5.686,5.686,0,0,0,2.445-4.669c.389-2.014.168-3.536-.655-4.525A3.148,3.148,0,0,0,32.3,11.6a4.011,4.011,0,0,0-4.654-1.456c-1.991.651-3.91,2.66-3.922,3.18a.33.33,0,0,0,.09.234c.442.465.5,2.147.439,3.311a.387.387,0,0,0,0,.043c-.006.095-.012.187-.019.274a5.682,5.682,0,0,0,2.5,4.738s0,.007,0,.01v1.458h-.069c-3.791,0-6.875,3.5-6.875,7.8v4.675a.328.328,0,0,0,.328.328H39.289a.328.328,0,0,0,.328-.328V31.184C39.617,26.887,36.534,23.391,32.744,23.391Zm-2.053,2.3a1.015,1.015,0,0,1-2.012-.033l.959-.586Zm-.99,9.373a29.314,29.314,0,0,1-1.3-2.631l.634-5.351a1.676,1.676,0,0,0,1.3,0l.641,5.4C30.612,33.331,30.189,34.2,29.7,35.067Zm1.791-3.823-.546-4.609a1.664,1.664,0,0,0,.332-.6l1.539.905A32.284,32.284,0,0,1,31.492,31.244Zm-3.4-5.223a1.664,1.664,0,0,0,.338.614l-.539,4.548a32.417,32.417,0,0,1-1.3-4.242Zm.583,8.516A15.759,15.759,0,0,1,24.059,24.7a5.62,5.62,0,0,1,1.367-.516A31.735,31.735,0,0,0,28.673,34.537Zm5.3-10.348a5.6,5.6,0,0,1,1.216.437,15.856,15.856,0,0,1-4.312,9.619A31.685,31.685,0,0,0,33.977,24.189Zm-.648-.109c-.028.261-.123,1.05-.362,2.191L30.484,24.81a4.9,4.9,0,0,0,1.745-.645l.193-.117h.322A5.477,5.477,0,0,1,33.329,24.08ZM28.559,10.6a3.415,3.415,0,0,1,3.312,1.522.327.327,0,0,0,.26.128h0a2.492,2.492,0,0,1,1.782.866,3.637,3.637,0,0,1,.683,2.462,4.742,4.742,0,0,0-2.591-2.454.324.324,0,0,0-.275.034.33.33,0,0,0-.151.232.677.677,0,0,1-.28.353c-.337.244-1.067.474-2.62.189A3.586,3.586,0,0,0,24.918,15.5a4.867,4.867,0,0,0-.489-2.213A7.368,7.368,0,0,1,28.559,10.6Zm-3.676,6.616c0-.048.012-.155.021-.3a3.27,3.27,0,0,1,3.661-2.342,4.153,4.153,0,0,0,3.122-.3,1.469,1.469,0,0,0,.392-.411,4.372,4.372,0,0,1,2.34,3.35,4.771,4.771,0,1,1-9.536,0Zm4.77,5.6a5.217,5.217,0,0,0,2.333-.555v1.272l-.012.018-.086.052a4.224,4.224,0,0,1-4.381.011L27.4,23.55l-.012-.018V22.295A5.221,5.221,0,0,0,29.653,22.817Zm-2.7,1.231.217.13a4.9,4.9,0,0,0,1.661.622l-2.394,1.464c-.238-1.136-.333-1.922-.361-2.183a5.429,5.429,0,0,1,.587-.033Zm-6.509,7.139a7.413,7.413,0,0,1,2.993-6.1,16.21,16.21,0,0,0,5.373,10.448H20.442Zm18.518,4.347H30.439a16.226,16.226,0,0,0,5.382-10.547,7.376,7.376,0,0,1,3.14,6.2Z" transform="translate(-11.755 0)"/></g></svg>