<svg xmlns="http://www.w3.org/2000/svg" viewBox="0 0 42.077 38.945"><defs><style>.a{fill:#7a7a7a;}</style></defs><g transform="translate(0 0)"><g transform="translate(0 13.083)"><path class="a" d="M105.4,399.753h-3.542c-.143,0-.29-.01-.433,0-.209.015.087-.036.061.02a1.419,1.419,0,0,1-.2-.051c.041.015.082.036.117.051-.041-.02-.082-.041-.117-.061-.189-.092.132.158-.005,0,.005.005-.092-.092-.092-.1.025.036.051.066.076.1-.025-.036-.046-.076-.071-.112-.117-.173.036.2,0-.005-.01-.046-.02-.087-.031-.133.02.158.026.178.02.061.015-.2,0-.418,0-.622V388.894c-.015-.224-.051.158-.01.031.005-.015.031-.163.046-.163-.015.041-.036.082-.051.117.02-.041.041-.082.061-.117.061-.092.046-.076-.041.046.031-.036.061-.066.092-.1.138-.158-.183.087.005,0,.015-.005.112-.071.117-.061-.041.015-.082.036-.117.051a1.015,1.015,0,0,1,.132-.036c.214-.066-.224-.01.005.005h3.98c.214-.015-.087.036-.061-.02a1.423,1.423,0,0,1,.2.051c-.005.041-.194-.112-.061-.02a.836.836,0,0,1,.112.071c-.117-.1-.132-.107-.051-.036l.046.046c.071.082.061.066-.036-.051a1.186,1.186,0,0,1,.1.173c-.01.01-.066-.229-.02-.02.041.189-.041.02,0-.031v8.444c0,.749-.046,1.513,0,2.258.015.229.071-.209.005.005-.005.02-.01.046-.015.066-.036.107-.025.087.031-.056a.859.859,0,0,1-.1.173c-.02-.005.183-.183.036-.051l-.046.046c-.082.071-.066.061.051-.036a1.192,1.192,0,0,1-.173.1c.041-.015.082-.036.117-.051a.988.988,0,0,1-.132.036c-.219.061.229-.026-.005-.015a1.019,1.019,0,0,0,0,2.038,2.31,2.31,0,0,0,2.268-2.334v-9.7c0-.285.005-.571,0-.856a2.314,2.314,0,0,0-2.324-2.283c-1.269-.01-2.538,0-3.8,0a2.316,2.316,0,0,0-2.385,2.273c-.005.25,0,.5,0,.754v9.774a2.317,2.317,0,0,0,1.789,2.319,9.05,9.05,0,0,0,1.743.056H105.4a1.019,1.019,0,1,0,0-2.038Z" transform="translate(-99.156 -386.611)"/></g><g transform="translate(33.613 13.083)"><path class="a" d="M764.95,399.753h-3.521c-.133,0-.27-.01-.4,0-.229.015.209.071-.005.005l-.066-.015c-.107-.036-.087-.025.056.031a.853.853,0,0,1-.173-.1c.015-.041.158.158.051.036l-.046-.046c-.071-.082-.061-.066.036.051a1.19,1.19,0,0,1-.1-.173c.015.041.036.082.051.117a1,1,0,0,1-.036-.132c-.061-.2-.005.194.005-.005.015-.214,0-.433,0-.647v-9.983c-.015-.224-.077.2-.005-.005.005-.015.031-.133.036-.133-.031-.005-.092.214.01,0,.061-.092.046-.076-.041.046.031-.036.061-.066.092-.1.138-.158-.183.087.005,0a.814.814,0,0,1,.117-.061c-.041.015-.081.036-.117.051a1,1,0,0,1,.132-.036c.214-.066-.224-.01.005.005h3.919c.224-.015-.2-.076.005-.005.015.005.132.031.132.036.005-.031-.214-.092,0,.01.092.061.077.046-.046-.041.036.031.066.061.1.092.158.138-.087-.183,0,.005a.806.806,0,0,1,.061.117c-.015-.041-.036-.082-.051-.117a1.04,1.04,0,0,1,.036.132c.066.214.01-.224-.005.005v8.414c0,.734-.046,1.483,0,2.217.015.229.071-.209.005.005-.005.02-.01.046-.015.066-.036.107-.026.087.03-.056a.854.854,0,0,1-.1.173c-.02-.005.183-.183.036-.051l-.046.046c-.081.071-.066.061.051-.036a1.185,1.185,0,0,1-.173.1c.041-.015.081-.036.117-.051a.987.987,0,0,1-.132.036c-.219.071.234-.015,0-.005a1.019,1.019,0,0,0,0,2.038,2.31,2.31,0,0,0,2.268-2.334v-9.7c0-.285.005-.571,0-.856a2.307,2.307,0,0,0-2.308-2.283c-1.254-.01-2.512,0-3.766,0a2.316,2.316,0,0,0-2.385,2.273c-.005.25,0,.5,0,.754v9.764a2.312,2.312,0,0,0,1.722,2.314,8.159,8.159,0,0,0,1.763.066h2.706a1.017,1.017,0,1,0,0-2.033Z" transform="translate(-758.756 -386.611)"/></g><g transform="translate(16.263 31.61)"><path class="a" d="M424.181,755.453c-.805,0-1.626.046-2.431-.005-.214-.015.015.025.025.01a.937.937,0,0,1-.138-.026c-.092-.02-.178-.046-.265-.071a.523.523,0,0,1-.127-.046s.2.1.056.02a3.265,3.265,0,0,1-.29-.163c-.015-.01-.112-.071-.112-.077s.163.143.046.036c-.066-.061-.133-.117-.194-.184-.041-.041-.076-.081-.112-.122s-.056-.138-.025-.025.015.015-.015-.031a1.327,1.327,0,0,1-.087-.143c-.031-.051-.051-.1-.082-.148s-.051-.168-.02-.031c.036.158-.041-.133-.051-.168a1.976,1.976,0,0,0-.066-.3c.015.026.015.245.01.061,0-.061-.005-.117-.01-.178,0-.081.005-.163.01-.25.01-.163-.01.066-.01.061a.944.944,0,0,1,.025-.138,2.246,2.246,0,0,1,.071-.265.778.778,0,0,1,.046-.127c-.056.127-.066.158-.036.087l.046-.092c.041-.082.087-.158.132-.234a1.1,1.1,0,0,1,.076-.112s-.143.163-.036.046c.066-.076.132-.148.2-.219.031-.031.066-.061.1-.092.158-.143-.025,0-.02.015-.005-.026.229-.148.255-.163.041-.02.082-.041.117-.061.178-.1-.025-.015-.025.005.005-.026.224-.077.26-.087l.132-.031.066-.015c.112-.02.092-.015-.066.005a1.99,1.99,0,0,1,.5-.015h.754c.423,0,.846-.005,1.274,0a1.44,1.44,0,0,1,.148.005c-.005,0,.138.005.143.01-.015-.036-.229-.041-.031,0,.092.02.178.041.265.066l.127.046c.087.025-.2-.107.005.005a2.13,2.13,0,0,1,.234.132c.015.01.143.082.138.092s-.194-.168-.046-.036c.066.061.133.117.194.183.031.031.061.066.092.1s.046.051.066.077c.046.061.031.036-.056-.077.026-.005.148.229.163.255.025.051.051.1.076.148.087.163-.046-.143-.01-.026s.071.214.1.326c.01.046.015.092.026.138.031.122-.015-.224-.005-.03a2.666,2.666,0,0,1,.005.285c0,.046-.005.092-.005.143-.01.234.051-.219,0,0-.025.112-.051.224-.087.331a1.166,1.166,0,0,1-.046.127c.015,0,.112-.219.005-.026q-.076.145-.168.291c-.031.051-.051.153-.015.03.051-.066.051-.066-.005,0-.02.025-.046.051-.066.077a2.088,2.088,0,0,1-.214.209.6.6,0,0,1-.1.087c.117-.092.132-.1.046-.041-.02.01-.036.025-.056.036-.1.061-.194.112-.29.163-.138.076.056-.026.056-.02a.955.955,0,0,1-.194.066c-.1.031-.2.046-.3.071-.143.036.26-.01.031-.005a.578.578,0,0,1-.209.031,1.019,1.019,0,1,0,0,2.038,3.734,3.734,0,0,0,2.991-1.559,3.645,3.645,0,0,0,.545-3.068,3.705,3.705,0,0,0-2.13-2.416,5.033,5.033,0,0,0-2.018-.29c-.535,0-1.07-.005-1.605,0a3.666,3.666,0,0,0-3.639,4.291A3.654,3.654,0,0,0,420.1,757a4.625,4.625,0,0,0,2.421.489h1.661a1.029,1.029,0,0,0,1.019-1.019A1.047,1.047,0,0,0,424.181,755.453Z" transform="translate(-418.279 -750.156)"/></g><g transform="translate(6.444)"><path class="a" d="M243.979,166.17h6.166a5.08,5.08,0,0,0,1.615-.2,4.406,4.406,0,0,0,2.512-2.084,5.475,5.475,0,0,0,.515-2.665v-14.2a26.751,26.751,0,0,0-.331-5.636,14.753,14.753,0,0,0-6.6-9.331,14.6,14.6,0,0,0-11.532-1.656,14.621,14.621,0,0,0-10.661,12.918c-.071.846-.046,1.7-.046,2.543v7.812a1.019,1.019,0,0,0,2.038,0v-8.923c0-.362,0-.719.02-1.08q.023-.352.061-.7l.015-.138c.025-.245-.036.24,0-.005.015-.117.036-.229.056-.347a12.959,12.959,0,0,1,.311-1.386c.127-.448.275-.892.448-1.33.015-.041.036-.087.051-.127.087-.224-.1.214.005-.005.041-.092.082-.189.122-.28.1-.214.2-.428.316-.637.209-.4.438-.785.683-1.162q.183-.283.382-.55c.046-.061.229-.367.082-.117a2.5,2.5,0,0,1,.229-.29,13.655,13.655,0,0,1,1.921-1.916,1.77,1.77,0,0,1,.265-.209c-.02.01-.189.143-.046.036.046-.036.092-.066.132-.1.189-.138.382-.275.581-.4a13.31,13.31,0,0,1,1.162-.683c.2-.107.4-.2.606-.3.1-.046.2-.092.311-.138.087-.041.071-.082-.056.025a1.173,1.173,0,0,1,.219-.092,12.327,12.327,0,0,1,1.33-.443,13.582,13.582,0,0,1,1.35-.3c.117-.02.229-.036.347-.056s.056-.056-.061.01a.647.647,0,0,1,.173-.02c.245-.025.494-.051.739-.061a13.463,13.463,0,0,1,1.361-.01c.234.01.474.025.708.046.117.01.234.025.352.036.183.02-.041-.01-.061-.01a2.179,2.179,0,0,1,.245.036,13.309,13.309,0,0,1,2.7.713l.316.122c.066.025.158.025-.056-.025.051.015.107.046.158.066q.329.145.642.306c.4.2.795.428,1.172.668.189.122.377.245.561.377.092.066.183.132.27.2a.539.539,0,0,1,.107.082c-.117-.092-.132-.1-.046-.036l.076.061a13.446,13.446,0,0,1,1.029.912,12.79,12.79,0,0,1,.912.984l.214.26c.025.036.056.071.082.107.143.178-.1-.143-.015-.02.132.194.28.377.413.576a12.628,12.628,0,0,1,.7,1.152c.107.2.209.4.306.6.051.1.1.2.143.306.02.041.036.082.056.122s.036.082.056.122c-.056-.127-.066-.158-.036-.087a14.285,14.285,0,0,1,.785,2.665c.02.112.041.229.061.341.005.046.015.092.02.138.005.025.005.046.01.071.015.112.015.092-.01-.061a1.054,1.054,0,0,1,.036.316c.015.127.025.26.036.387.025.336.036.673.036,1v17.372c0,.1-.01.189-.01.285-.01.245.051-.229,0,.005-.01.046-.015.092-.025.138-.026.112-.056.224-.092.331-.015.056-.041.107-.056.158-.031.071-.015.041.036-.087-.02.041-.036.082-.056.122-.046.092-.1.178-.148.265-.036.056-.107.224-.168.25.025-.036.051-.066.076-.1l-.087.1c-.031.036-.061.066-.092.1s-.25.285-.3.27c.015.005.173-.122.046-.036-.056.036-.112.076-.168.112a2.717,2.717,0,0,1-.265.148c-.025.01-.133.081-.153.071.051.025.2-.076.025-.015a2.948,2.948,0,0,1-.362.107c-.056.015-.112.025-.168.036-.107.02-.173-.031.031,0a2.845,2.845,0,0,0-.357.02h-6.482a1.029,1.029,0,0,0-1.019,1.019,1.04,1.04,0,0,0,1.019,1.04Z" transform="translate(-225.613 -129.874)"/></g></g></svg>