<svg xmlns="http://www.w3.org/2000/svg" viewBox="0 0 25.343 25.338"><g transform="translate(16.672 -24.664)"><g transform="translate(-17.667 -997.698)"><path d="M13.677,2l-.041,0a.422.422,0,0,0-.308.168L12.061,3.859a.422.422,0,0,0-.084.252V4.6A5.565,5.565,0,0,0,9.615,6.229H6.565a.422.422,0,0,0-.147,0H6.391v0a.422.422,0,0,0-.327.417,1.267,1.267,0,0,1-2.534,0,.422.422,0,1,0-.845,0,2.1,2.1,0,0,0,.9,1.707L1.024,15.683A.422.422,0,0,0,1,15.9q0,.02,0,.04a3.8,3.8,0,0,0,7.6,0q0-.016,0-.031a.422.422,0,0,0-.021-.228L6.012,8.357a2.092,2.092,0,0,0,.841-1.283h5.123v1.26a.422.422,0,0,0,.422.422h0V23.219A5.172,5.172,0,0,0,9.242,24.8H7.332a.422.422,0,0,0-.422.422v1.689a.422.422,0,0,0,.422.422H20a.422.422,0,0,0,.422-.422V25.226A.422.422,0,0,0,20,24.8H18.1a5.186,5.186,0,0,0-3.164-1.59V8.756a.422.422,0,0,0,.419-.422V7.074h5.123a2.1,2.1,0,0,0,.843,1.287l-2.562,7.322a.422.422,0,0,0-.023.219q0,.02,0,.04a3.8,3.8,0,0,0,7.6,0q0-.016,0-.031a.422.422,0,0,0-.021-.228L23.747,8.359a2.1,2.1,0,0,0,.9-1.707.422.422,0,1,0-.845,0,1.267,1.267,0,0,1-2.534,0,.422.422,0,0,0-.325-.417v0h-.028a.422.422,0,0,0-.147,0h-3.06a5.616,5.616,0,0,0-2.352-1.6V4.111a.422.422,0,0,0-.084-.252L14,2.17A.422.422,0,0,0,13.677,2Zm-.012,1.127.845,1.127V7.912H12.821V4.253ZM11.977,5.513v.716H10.814A4.7,4.7,0,0,1,11.977,5.513Zm3.378.02a4.758,4.758,0,0,1,1.143.7H15.355ZM4.8,6.228a.422.422,0,1,0,.422.422A.422.422,0,0,0,4.8,6.228Zm17.735,0a.422.422,0,1,0,.422.422A.422.422,0,0,0,22.533,6.229ZM4.361,8.7a2.106,2.106,0,0,0,.878,0l2.385,6.816H1.976Zm17.735,0a2.108,2.108,0,0,0,.879,0l2.384,6.814H19.711Zm-8.849.051h.845V23.115h-.845ZM1.956,16.364H7.64A2.9,2.9,0,0,1,6.276,18.5a2.954,2.954,0,0,1-2.956,0A2.9,2.9,0,0,1,1.956,16.364Zm17.735,0h5.684A2.9,2.9,0,0,1,24.011,18.5a2.954,2.954,0,0,1-2.956,0A2.9,2.9,0,0,1,19.691,16.364Zm-6.1,7.6a5.973,5.973,0,0,1,3.238.845H10.519A5.874,5.874,0,0,1,13.588,23.96ZM7.754,25.649H19.582v.845H7.754Z" transform="translate(0 1020.362)"/></g></g></svg>