<svg xmlns="http://www.w3.org/2000/svg" viewBox="0 0 33.2 37.243"><defs><style>.a{fill:#fff;}</style></defs><g transform="translate(-16.5 -14)"><g transform="translate(40.15 37.599)"><path class="a" d="M68.05,60.7,63.3,65.45h2.88v5.71h1.112V64.389H65.928l2.122-2.122,2.122,2.122H68.859V71.16H69.92V65.45h2.931Z" transform="translate(-63.3 -60.7)"/></g><g transform="translate(22.615 24.056)"><rect class="a" width="6.468" height="1.314"/></g><g transform="translate(22.615 29.969)"><rect class="a" width="16.979" height="1.314" transform="translate(0 0)"/></g><g transform="translate(22.615 33.91)"><rect class="a" width="16.979" height="1.314"/></g><g transform="translate(22.615 39.368)"><rect class="a" width="12.684" height="1.314"/></g><g transform="translate(22.615 42.551)"><rect class="a" width="10.865" height="1.314"/></g><g transform="translate(16.5 14)"><path class="a" d="M44.243,49.121a1.157,1.157,0,0,1-1.112.758h-24.1a1.23,1.23,0,0,1-1.213-1.213V16.476a1.23,1.23,0,0,1,1.213-1.213H32.974V23.6A2.6,2.6,0,0,0,35.6,26.179h8.742L44.293,36.74h1.314l.051-11.117h0v-.556h0v-.1h0c-.051-.1-.051-.253-.152-.354L34.743,14.152A.815.815,0,0,0,34.288,14H19.027A2.534,2.534,0,0,0,16.5,16.527v32.19a2.534,2.534,0,0,0,2.527,2.527h24.1a2.5,2.5,0,0,0,2.476-2.072H44.243ZM34.288,15.567l9.6,9.3H35.6A1.3,1.3,0,0,1,34.288,23.6Z" transform="translate(-16.5 -14)"/></g></g></svg>