<svg xmlns="http://www.w3.org/2000/svg" viewBox="0 0 27.128 25.182"><g transform="translate(-19.436 -64.589)"><g transform="translate(14.436 56.36)"><path d="M18.783,10.785a2.556,2.556,0,1,0-2.556,2.556A2.556,2.556,0,0,0,18.783,10.785ZM16.227,9.572a1.213,1.213,0,1,1-1.213,1.213A1.214,1.214,0,0,1,16.227,9.572Z" transform="translate(-6.057)"/><path d="M9.161,31.288H12.12a.468.468,0,0,1,.455.355l1.442,5.763a.672.672,0,0,0,1.3-.326l-1.442-5.763a1.809,1.809,0,0,0-1.758-1.372H9.161A3.013,3.013,0,0,0,6.234,32.23L5.007,40.5a.672.672,0,0,0,.566.763.7.7,0,0,0,.1.007.671.671,0,0,0,.663-.573l.054-.367,1.154-7.806A1.671,1.671,0,0,1,9.161,31.288Z" transform="translate(0 -15.17)"/><path d="M15.462,61.637a.667.667,0,0,0-.233.5v7.591a.672.672,0,1,0,1.343,0V62.142a.671.671,0,0,0-.665-.671H15.9A.667.667,0,0,0,15.462,61.637Z" transform="translate(-7.146 -37.193)"/><path d="M25.289,70.4a.672.672,0,0,0,.672-.672V62.142a.672.672,0,1,0-1.343,0v7.591A.672.672,0,0,0,25.289,70.4Z" transform="translate(-13.704 -37.193)"/><path d="M71.925,12.685a2.556,2.556,0,1,0,2.556,2.556A2.556,2.556,0,0,0,71.925,12.685Zm0,3.769a1.213,1.213,0,1,1,1.213-1.213A1.214,1.214,0,0,1,71.925,16.454Z" transform="translate(-44.967 -3.113)"/><path d="M69.814,34.515l-.011-.056a3.013,3.013,0,0,0-2.927-2.285H64.858a3.005,3.005,0,0,0-2.92,2.26l-1.214,4.179A.67.67,0,0,0,62,39.034c.006-.016.014-.03.019-.046l1.22-4.2a1.672,1.672,0,0,1,1.624-1.267h2.018a1.671,1.671,0,0,1,1.617,1.242l1.148,7.129.061.377a.672.672,0,0,0,.662.565.693.693,0,0,0,.108-.008.672.672,0,0,0,.556-.77Z" transform="translate(-38.909 -16.727)"/><path d="M80.98,61.471a.671.671,0,0,0-.665.671v7.591a.672.672,0,1,0,1.343,0V62.142a.679.679,0,0,0-.671-.672Z" transform="translate(-52.613 -37.193)"/><path d="M72.27,69.733V62.142a.672.672,0,1,0-1.343,0v7.591a.672.672,0,1,0,1.343,0Z" transform="translate(-46.055 -37.193)"/><path d="M46.535,48.722a2.414,2.414,0,1,0-2.414,2.414A2.417,2.417,0,0,0,46.535,48.722Zm-2.414-1.07a1.071,1.071,0,1,1-1.071,1.071A1.072,1.072,0,0,1,44.121,47.651Z" transform="translate(-25.643 -26.601)"/><path d="M43.9,63.615l.827-1.819a.671.671,0,0,0-1.222-.556l-.825,1.813a1.349,1.349,0,0,1-.943.277H40.367a1.368,1.368,0,0,1-.94-.272L38.6,61.241a.671.671,0,0,0-1.222.556l.828,1.819a2.3,2.3,0,0,0,2.162,1.059h1.375A2.3,2.3,0,0,0,43.9,63.615Z" transform="translate(-22.575 -36.758)"/><path d="M45.632,79.707V76.135a.672.672,0,0,0-1.343,0v3.572a.672.672,0,1,0,1.343,0Z" transform="translate(-27.446 -46.968)"/><path d="M51.36,75.463a.672.672,0,0,0-.672.672v3.572a.672.672,0,0,0,1.343,0V76.135A.671.671,0,0,0,51.36,75.463Z" transform="translate(-31.917 -46.968)"/></g></g></svg>