<svg xmlns="http://www.w3.org/2000/svg" viewBox="0 0 22.637 25.369"><g transform="translate(-5.681 -43.131)"><g transform="translate(1.681 42.631)"><path d="M5.171,11.663A1.15,1.15,0,0,0,4,12.833V24.7a1.15,1.15,0,0,0,1.171,1.171h20.3A1.15,1.15,0,0,0,26.637,24.7V12.833a1.15,1.15,0,0,0-1.171-1.171H20.158V10.375H20.7a.369.369,0,0,0,.39-.39V8.813a.783.783,0,0,0-.781-.781H20.08V7.1a1.566,1.566,0,0,0-1.561-1.561.267.267,0,0,1-.273-.273V4.4h.468a.369.369,0,0,0,.39-.39V.89a.369.369,0,0,0-.39-.39H11.025a.369.369,0,0,0-.39.39V4.052a.369.369,0,0,0,.39.39h.468V8.033h-1.21a.783.783,0,0,0-.781.781V9.984a.369.369,0,0,0,.39.39h.546v1.288Zm20.3,13.426H5.171a.369.369,0,0,1-.39-.39V13.614L8.059,19.7a.41.41,0,0,0,.351.2H13.6v1.21a.783.783,0,0,0,.781.781h1.873a.783.783,0,0,0,.781-.781V19.9h4.1a.482.482,0,0,0,.312-.156l4.41-6.4V24.7A.369.369,0,0,1,25.466,25.089ZM14.382,19.547h0v-1.6h1.873v3.2H14.382Zm11.123-7.1-4.566,6.713h-3.9v-1.21a.783.783,0,0,0-.781-.781H14.382a.783.783,0,0,0-.781.781v1.21H8.645L5.054,12.443c.039,0,.078-.039.117-.039h20.3A.038.038,0,0,0,25.505,12.443ZM20.314,9.555H19.1V8.813h1.171v.742Zm-8.9-8.274h6.908V3.661H11.416ZM17.5,4.442V5.3a1.049,1.049,0,0,0,1.054,1.054.783.783,0,0,1,.781.781v.937h-.585a.369.369,0,0,0-.39.39v1.21a.508.508,0,0,1-.429.507.461.461,0,0,1-.507-.468.39.39,0,1,0-.781,0,.468.468,0,0,1-.937,0,.39.39,0,1,0-.781,0,.468.468,0,1,1-.937,0,.39.39,0,0,0-.781,0,.468.468,0,0,1-.937,0V4.442ZM10.323,8.813h1.21v.742h-1.21Zm.937,1.522h.429a1.32,1.32,0,0,0,1.054.624,1.211,1.211,0,0,0,.859-.351,1.317,1.317,0,0,0,.859.351,1.211,1.211,0,0,0,.859-.351,1.317,1.317,0,0,0,.859.351,1.148,1.148,0,0,0,.859-.351,1.317,1.317,0,0,0,.859.351h.117a1.276,1.276,0,0,0,.937-.585h.468v1.288H11.26Z"/></g></g></svg>