<svg xmlns="http://www.w3.org/2000/svg" viewBox="0 0 26.247 25.685"><g transform="translate(-2.43 -3.4)"><path d="M28.671,12.693a.552.552,0,0,0,0-.119v-.019a.551.551,0,0,0-.039-.1v-.017L26.345,8.113A2.2,2.2,0,0,0,24.392,6.93H20.569V5.6a2.2,2.2,0,0,0-2.2-2.2h-5.65a2.2,2.2,0,0,0-2.2,2.2V6.93H7.137A2.2,2.2,0,0,0,5.269,7.975L2.491,12.4v.019a.551.551,0,0,0-.044.1v.036a.551.551,0,0,0-.017.1v.028h0v1.4A2.654,2.654,0,0,0,4.3,16.609c0,.017,0,.03,0,.047v9.673a2.756,2.756,0,0,0,2.756,2.756h17a2.756,2.756,0,0,0,2.756-2.756V16.62a2.654,2.654,0,0,0,1.868-2.53ZM11.613,5.6a1.1,1.1,0,0,1,1.1-1.1h5.65a1.1,1.1,0,0,1,1.1,1.1V7.479h0V9.463H11.613ZM6.2,8.551a1.1,1.1,0,0,1,.934-.518H10.51v1.981a.551.551,0,0,0,.551.551h8.957a.551.551,0,0,0,.551-.551V8.033h3.822a1.1,1.1,0,0,1,.976.59l1.841,3.516H3.965ZM23.377,14.09v.466a2.245,2.245,0,0,1-4.489,0V13.244h4.487Zm-5.594.466a2.245,2.245,0,0,1-4.489,0V13.244h4.489Zm-5.592,0a2.246,2.246,0,0,1-4.489,0V13.244h4.492ZM3.51,14.09v-.846H6.6v.846a1.546,1.546,0,1,1-3.092,0Zm9.979,13.892V23.355a2.05,2.05,0,1,1,4.1,0v4.627Zm10.563,0h-5.36V23.355a3.153,3.153,0,1,0-6.305,0v4.627H7.027a1.654,1.654,0,0,1-1.654-1.654V16.716a2.64,2.64,0,0,0,1.546-.75,3.34,3.34,0,0,0,5.826.422,3.34,3.34,0,0,0,5.592,0,3.34,3.34,0,0,0,5.823-.422,2.64,2.64,0,0,0,1.546.747v9.615A1.654,1.654,0,0,1,24.053,27.982ZM27.569,14.09a1.546,1.546,0,1,1-3.092,0v-.846h3.092Z" transform="translate(0 0)"/><path d="M20.465,64.37a2.108,2.108,0,0,0-2.105,2.1v2.105a.551.551,0,0,0,.551.551H22.02a.551.551,0,0,0,.551-.551V66.473A2.108,2.108,0,0,0,20.465,64.37Zm1,3.66H19.462V66.473a1,1,0,1,1,2.006,0Z" transform="translate(-11.54 -44.167)"/><path d="M68.642,64.37h-.353A1.929,1.929,0,0,0,66.36,66.3v2.282a.551.551,0,0,0,.551.551H70.02a.551.551,0,0,0,.551-.551V66.3A1.929,1.929,0,0,0,68.642,64.37Zm.827,3.66H67.462V66.3a.827.827,0,0,1,.827-.827h.353a.827.827,0,0,1,.827.827Z" transform="translate(-46.312 -44.167)"/><path d="M45.919,13.9H42.681a.551.551,0,0,0,0,1.1h3.238a.551.551,0,0,0,0-1.1Z" transform="translate(-28.759 -7.606)"/></g></svg>