<svg xmlns="http://www.w3.org/2000/svg" viewBox="0 0 66.82 66.825"><defs><style>.a{fill:#7a7a7a;}</style></defs><g transform="translate(-5.003 -17.382)"><g transform="translate(5.003 17.382)"><path class="a" d="M82.369,75.659a4.742,4.742,0,1,0,1.389,3.354,4.748,4.748,0,0,0-1.389-3.354Zm-2.277,4.43a1.557,1.557,0,0,1-2.152,0,1.521,1.521,0,1,1,2.152,0Z" transform="translate(-22.84 -22.837)"/><path class="a" d="M47.441,33.009,56.654,23.8l3.969,3.969L70.992,13.447,64.726,7.182,50.408,17.551l3.969,3.969-9.212,9.213-9.081-9.081A15.546,15.546,0,0,0,14.613,6.193l-2.227.922,7.995,7.994-1.733,3.868L15.142,20.4,7.119,12.382,6.2,14.609A15.546,15.546,0,0,0,21.655,36.08l9.081,9.081L26.1,49.8,20.025,43.72,9.337,54.409A10.2,10.2,0,1,0,23.765,68.837L34.454,58.148l-6.075-6.075,4.635-4.635,21.4,21.4A10.2,10.2,0,0,0,68.84,54.409ZM64.391,11.4l2.381,2.381L60.23,22.818l-4.874-4.874ZM29.9,58.148l-8.412,8.411a6.98,6.98,0,0,1-9.872,0h0a6.989,6.989,0,0,1,0-9.873l8.412-8.412Zm36.664,8.411a6.981,6.981,0,0,1-9.873,0L22.842,32.712l-.778.094A12.328,12.328,0,0,1,8.445,18.263l5.931,5.931,6.682-2.722L24.227,14.4,18.268,8.442a12.3,12.3,0,0,1,11.03,3.4h0A12.27,12.27,0,0,1,32.81,22.06l-.094.777L66.563,56.686A6.991,6.991,0,0,1,66.563,66.559Z" transform="translate(-5.003 -5)"/></g></g></svg>