<svg xmlns="http://www.w3.org/2000/svg" viewBox="0 0 86.985 87.803"><defs><style>.a{fill:#7a7a7a;}</style></defs><g transform="translate(24.987 -490.534)"><g transform="translate(-24.987 490.534)"><path class="a" d="M45.929,66.089h32.7L88.65,76.1a2.7,2.7,0,0,0,4.616-1.913v-43.5a5.223,5.223,0,0,0-5.217-5.217H45.929a5.223,5.223,0,0,0-5.216,5.217V60.872A5.223,5.223,0,0,0,45.929,66.089Zm-2.293-35.4a2.3,2.3,0,0,1,2.293-2.295H88.048a2.3,2.3,0,0,1,2.295,2.295V73.664l-9.705-9.706a2.724,2.724,0,0,0-1.912-.792h-32.8a2.3,2.3,0,0,1-2.293-2.294Z" transform="translate(-6.281 -5.5)"/><path class="a" d="M10.632,7.923H52.752a2.292,2.292,0,0,1,2.29,2.29V20.59h2.923V10.213A5.219,5.219,0,0,0,52.752,5H10.632a5.219,5.219,0,0,0-5.213,5.213v43.5a2.707,2.707,0,0,0,4.618,1.911L20.054,45.61H35.467V42.687H19.956a2.688,2.688,0,0,0-1.91.8l-9.7,9.7V10.213A2.291,2.291,0,0,1,10.632,7.923Z" transform="translate(-5.419 -5)"/><path class="a" d="M18.972,74.575a9.356,9.356,0,1,0-9.357-9.357A9.357,9.357,0,0,0,18.972,74.575Zm0-15.79a6.433,6.433,0,1,1-6.434,6.433A6.441,6.441,0,0,1,18.972,58.785Z" transform="translate(-5.521 -6.242)"/><path class="a" d="M32.147,90.747l-2.078-9.776a4.42,4.42,0,0,0-4.3-3.409H11.977a4.42,4.42,0,0,0-4.3,3.409L5.6,90.747a3.113,3.113,0,0,0,3.03,3.827h20.49A3.113,3.113,0,0,0,32.147,90.747Zm-2.882.832a.175.175,0,0,1-.149.072H8.626a.191.191,0,0,1-.185-.235l.007-.03.007-.031,2.069-9.737a1.492,1.492,0,0,1,1.453-1.133h13.79a1.492,1.492,0,0,1,1.453,1.133l2.069,9.737.007.031.007.03A.174.174,0,0,1,29.266,91.579Z" transform="translate(-5.421 -6.772)"/><circle class="a" cx="3.025" cy="3.025" r="3.025" transform="translate(45.908 37.687)"/><circle class="a" cx="3.025" cy="3.025" r="3.025" transform="translate(57.683 37.687)"/><circle class="a" cx="3.025" cy="3.025" r="3.025" transform="translate(69.46 37.687)"/></g></g></svg>