<svg xmlns="http://www.w3.org/2000/svg" viewBox="0 0 14.398 14.397"><defs><style>.a{fill:#1da1f2;}</style></defs><path class="a" d="M0,0V14.4H14.4V0ZM11.315,5.541A5.6,5.6,0,0,1,2.7,10.514,3.962,3.962,0,0,0,5.615,9.7,1.971,1.971,0,0,1,3.776,8.331,1.98,1.98,0,0,0,4.665,8.3a1.971,1.971,0,0,1-1.58-1.956,1.959,1.959,0,0,0,.891.247,1.973,1.973,0,0,1-.61-2.629A5.591,5.591,0,0,0,7.426,6.017a1.97,1.97,0,0,1,3.356-1.8,3.94,3.94,0,0,0,1.251-.478,1.975,1.975,0,0,1-.866,1.089,3.946,3.946,0,0,0,1.131-.31,4.023,4.023,0,0,1-.983,1.018Z"/></svg>